%TF.GenerationSoftware,KiCad,Pcbnew,(6.99.0-1594-g5bf163de80)*%
%TF.CreationDate,2022-06-08T17:32:02-04:00*%
%TF.ProjectId,nrf52840,6e726635-3238-4343-902e-6b696361645f,v1.0*%
%TF.SameCoordinates,Original*%
%TF.FileFunction,Soldermask,Bot*%
%TF.FilePolarity,Negative*%
%FSLAX46Y46*%
G04 Gerber Fmt 4.6, Leading zero omitted, Abs format (unit mm)*
G04 Created by KiCad (PCBNEW (6.99.0-1594-g5bf163de80)) date 2022-06-08 17:32:02*
%MOMM*%
%LPD*%
G01*
G04 APERTURE LIST*
%ADD10C,1.600000*%
%ADD11C,0.650000*%
%ADD12O,1.000000X2.100000*%
%ADD13O,1.000000X1.600000*%
%ADD14C,0.800000*%
G04 APERTURE END LIST*
D10*
%TO.C,U4*%
X150190000Y-82760000D03*
X150190000Y-85300000D03*
X150190000Y-87840000D03*
X150190000Y-90380000D03*
X150190000Y-92920000D03*
X150190000Y-95460000D03*
X150190000Y-98000000D03*
X150190000Y-100540000D03*
X150190000Y-103080000D03*
X150190000Y-105620000D03*
X150190000Y-108160000D03*
X150190000Y-110700000D03*
X150190000Y-113240000D03*
X147210000Y-113240000D03*
X147210000Y-110700000D03*
X147210000Y-108160000D03*
X147210000Y-105620000D03*
X178710000Y-113240000D03*
X178710000Y-110700000D03*
X178710000Y-108160000D03*
X178710000Y-105620000D03*
X175760000Y-113240000D03*
X175760000Y-110700000D03*
X175760000Y-108160000D03*
X175760000Y-105620000D03*
X175760000Y-103080000D03*
X175760000Y-100540000D03*
X175760000Y-98000000D03*
X175760000Y-95460000D03*
X175760000Y-92920000D03*
X175760000Y-90380000D03*
X175760000Y-87840000D03*
X175760000Y-85300000D03*
X175760000Y-82760000D03*
X147235000Y-103095000D03*
%TD*%
D11*
%TO.C,J1*%
X164380000Y-87920000D03*
X158600000Y-87920000D03*
D12*
X157169999Y-88449999D03*
D13*
X157169999Y-84269999D03*
X165809999Y-84269999D03*
D12*
X165809999Y-88449999D03*
%TD*%
D14*
%TO.C,J2*%
X173275000Y-85500000D03*
%TD*%
%TO.C,J4*%
X170650000Y-85450000D03*
%TD*%
M02*
