M48
; DRILL file {KiCad (6.99.0-1594-g5bf163de80)} date Wednesday, June 08, 2022 at 05:32:05 PM
; FORMAT={-:-/ absolute / metric / decimal}
; #@! TF.CreationDate,2022-06-08T17:32:05-04:00
; #@! TF.GenerationSoftware,Kicad,Pcbnew,(6.99.0-1594-g5bf163de80)
; #@! TF.FileFunction,MixedPlating,1,2
FMAT,2
METRIC
; #@! TA.AperFunction,Plated,PTH,ViaDrill
T1C0.300
; #@! TA.AperFunction,Plated,PTH,ComponentDrill
T2C0.450
; #@! TA.AperFunction,Plated,PTH,ComponentDrill
T3C0.600
; #@! TA.AperFunction,Plated,PTH,ComponentDrill
T4C0.840
; #@! TA.AperFunction,NonPlated,NPTH,ComponentDrill
T5C0.650
%
G90
G05
T1
X145.28Y-108.45
X146.0Y-104.78
X147.0Y-115.8
X147.2Y-88.4
X147.21Y-85.35
X148.8Y-107.79
X148.88Y-110.78
X148.98Y-97.09
X149.1Y-112.2
X149.121Y-108.768
X150.0Y-116.0
X150.352Y-99.219
X151.46Y-110.635
X151.48Y-105.21
X151.758Y-108.017
X151.825Y-96.325
X152.225Y-88.625
X152.54Y-106.36
X152.688Y-109.358
X152.72Y-103.93
X152.91Y-108.57
X152.95Y-93.125
X153.14Y-107.02
X153.15Y-83.15
X153.15Y-95.5
X153.16Y-91.27
X153.18Y-110.356
X153.35Y-103.1
X153.43Y-98.65
X153.725Y-111.825
X154.142Y-106.438
X154.34Y-85.78
X154.425Y-98.825
X154.7Y-91.575
X154.7Y-100.82
X154.8Y-88.35
X155.05Y-92.875
X155.26Y-98.904
X155.59Y-107.681
X155.904Y-99.775
X156.03Y-92.95
X156.18Y-106.392
X156.587Y-101.913
X156.775Y-92.575
X157.0Y-113.2
X157.025Y-98.75
X157.13Y-106.39
X157.44Y-91.23
X157.71Y-107.681
X157.74Y-105.554
X157.825Y-100.425
X158.415Y-93.625
X158.425Y-95.275
X158.45Y-107.285
X158.65Y-82.175
X158.8Y-111.6
X158.867Y-92.087
X159.075Y-94.375
X159.275Y-91.475
X159.285Y-105.195
X159.34Y-101.31
X159.56Y-104.18
X159.575Y-109.9
X159.59Y-93.65
X159.685Y-98.675
X160.01Y-105.1
X160.4Y-87.875
X160.794Y-98.41
X160.925Y-93.275
X160.992Y-95.477
X161.025Y-101.7
X161.025Y-102.7
X161.025Y-103.7
X161.07Y-97.72
X161.244Y-90.73
X161.45Y-84.8
X161.486Y-91.8
X161.91Y-86.991
X161.95Y-105.4
X162.025Y-101.7
X162.025Y-102.7
X162.025Y-103.7
X162.047Y-106.763
X162.09Y-94.74
X162.153Y-93.181
X162.3Y-107.725
X162.45Y-90.625
X162.543Y-92.019
X162.688Y-96.41
X162.75Y-88.1
X162.876Y-95.564
X163.0Y-91.45
X163.025Y-101.7
X163.025Y-102.7
X163.025Y-103.7
X163.57Y-93.181
X163.85Y-90.725
X163.95Y-107.225
X164.42Y-102.7
X164.42Y-101.68
X164.448Y-103.645
X164.45Y-92.55
X164.525Y-82.075
X164.675Y-117.05
X164.789Y-105.062
X165.01Y-86.93
X165.402Y-94.954
X165.528Y-96.062
X165.865Y-93.88
X165.95Y-105.84
X166.153Y-99.289
X166.18Y-100.675
X166.222Y-95.188
X166.324Y-98.1
X166.375Y-90.6
X166.42Y-103.194
X167.07Y-93.87
X167.21Y-107.179
X167.286Y-90.361
X167.7Y-96.55
X167.98Y-86.61
X168.006Y-110.419
X168.3Y-114.075
X168.35Y-108.425
X168.39Y-91.79
X168.725Y-82.2
X168.927Y-103.534
X169.175Y-109.225
X169.425Y-107.9
X169.81Y-100.08
X169.9Y-99.325
X170.09Y-102.2
X170.12Y-106.47
X170.25Y-103.367
X170.312Y-107.375
X170.32Y-112.88
X170.725Y-103.92
X170.823Y-98.834
X170.875Y-108.875
X170.908Y-100.367
X171.075Y-94.625
X171.15Y-110.425
X171.7Y-100.1
X171.837Y-102.492
X171.9Y-88.6
X171.95Y-87.55
X171.973Y-103.313
X172.125Y-86.7
X172.2Y-106.4
X172.36Y-115.96
X172.475Y-104.375
X172.652Y-94.955
X173.45Y-106.225
X173.575Y-83.875
X173.7Y-89.075
X173.825Y-99.35
X174.075Y-102.475
X174.55Y-107.36
X174.575Y-94.025
X176.05Y-115.53
X178.4Y-83.8
X178.8Y-88.8
X179.0Y-93.4
X179.2Y-97.8
T2
X170.65Y-85.45
X173.275Y-85.5
T4
X147.21Y-105.62
X147.21Y-108.16
X147.21Y-110.7
X147.21Y-113.24
X147.235Y-103.095
X150.19Y-82.76
X150.19Y-85.3
X150.19Y-87.84
X150.19Y-90.38
X150.19Y-92.92
X150.19Y-95.46
X150.19Y-98.0
X150.19Y-100.54
X150.19Y-103.08
X150.19Y-105.62
X150.19Y-108.16
X150.19Y-110.7
X150.19Y-113.24
X175.76Y-82.76
X175.76Y-85.3
X175.76Y-87.84
X175.76Y-90.38
X175.76Y-92.92
X175.76Y-95.46
X175.76Y-98.0
X175.76Y-100.54
X175.76Y-103.08
X175.76Y-105.62
X175.76Y-108.16
X175.76Y-110.7
X175.76Y-113.24
X178.71Y-105.62
X178.71Y-108.16
X178.71Y-110.7
X178.71Y-113.24
T5
X158.6Y-87.92
X164.38Y-87.92
T3
X157.17Y-84.57G85X157.17Y-83.97
G05
X157.17Y-89.0G85X157.17Y-87.9
G05
X165.81Y-84.57G85X165.81Y-83.97
G05
X165.81Y-89.0G85X165.81Y-87.9
G05
T0
M30
