%FSLAX45Y45*%
G04 Gerber Fmt 4.5, Leading zero omitted, Abs format (unit mm)*
G04 Created by KiCad (PCBNEW (6.99.0-1594-g5bf163de80)) date 2022-06-08 17:32:05*
%MOMM*%
%LPD*%
G01*
G04 APERTURE LIST*
%TA.AperFunction,Profile*%
%ADD10C,0.200000*%
%TD*%
%ADD11C,0.200000*%
%ADD12C,0.030000*%
%ADD13C,0.045000*%
%ADD14C,0.060000*%
%ADD15C,0.084000*%
%ADD16C,0.065000*%
G04 APERTURE END LIST*
D10*
X18055000Y-8220000D02*
G75*
G03*
X17935000Y-8100000I-120000J0D01*
G01*
X14587500Y-8100000D02*
X17935000Y-8100000D01*
X14472500Y-12160000D02*
G75*
G03*
X14592500Y-12280000I120000J0D01*
G01*
X17940000Y-12280000D02*
X14592500Y-12280000D01*
X14587500Y-8100000D02*
G75*
G03*
X14467500Y-8220000I0J-120000D01*
G01*
X18060000Y-12160000D02*
X18055000Y-8220000D01*
X17940000Y-12280000D02*
G75*
G03*
X18060000Y-12160000I0J120000D01*
G01*
X14472500Y-12160000D02*
X14467500Y-8220000D01*
D11*
D12*
X14513000Y-10830000D02*
X14543000Y-10860000D01*
X14543000Y-10830000D02*
X14513000Y-10860000D01*
X14585000Y-10463000D02*
X14615000Y-10493000D01*
X14615000Y-10463000D02*
X14585000Y-10493000D01*
X14685000Y-11565000D02*
X14715000Y-11595000D01*
X14715000Y-11565000D02*
X14685000Y-11595000D01*
X14705000Y-8825000D02*
X14735000Y-8855000D01*
X14735000Y-8825000D02*
X14705000Y-8855000D01*
X14706000Y-8520000D02*
X14736000Y-8550000D01*
X14736000Y-8520000D02*
X14706000Y-8550000D01*
X14865000Y-10764000D02*
X14895000Y-10794000D01*
X14895000Y-10764000D02*
X14865000Y-10794000D01*
X14873000Y-11063000D02*
X14903000Y-11093000D01*
X14903000Y-11063000D02*
X14873000Y-11093000D01*
X14883000Y-9694000D02*
X14913000Y-9724000D01*
X14913000Y-9694000D02*
X14883000Y-9724000D01*
X14895000Y-11205000D02*
X14925000Y-11235000D01*
X14925000Y-11205000D02*
X14895000Y-11235000D01*
X14897111Y-10861758D02*
X14927111Y-10891758D01*
X14927111Y-10861758D02*
X14897111Y-10891758D01*
X14985000Y-11585000D02*
X15015000Y-11615000D01*
X15015000Y-11585000D02*
X14985000Y-11615000D01*
X15020250Y-9906872D02*
X15050250Y-9936872D01*
X15050250Y-9906872D02*
X15020250Y-9936872D01*
X15131000Y-11048550D02*
X15161000Y-11078550D01*
X15161000Y-11048550D02*
X15131000Y-11078550D01*
X15133000Y-10506000D02*
X15163000Y-10536000D01*
X15163000Y-10506000D02*
X15133000Y-10536000D01*
X15160815Y-10786704D02*
X15190815Y-10816704D01*
X15190815Y-10786704D02*
X15160815Y-10816704D01*
X15167500Y-9617500D02*
X15197500Y-9647500D01*
X15197500Y-9617500D02*
X15167500Y-9647500D01*
X15207500Y-8847500D02*
X15237500Y-8877500D01*
X15237500Y-8847500D02*
X15207500Y-8877500D01*
X15239000Y-10621000D02*
X15269000Y-10651000D01*
X15269000Y-10621000D02*
X15239000Y-10651000D01*
X15253826Y-10920826D02*
X15283826Y-10950826D01*
X15283826Y-10920826D02*
X15253826Y-10950826D01*
X15257000Y-10378000D02*
X15287000Y-10408000D01*
X15287000Y-10378000D02*
X15257000Y-10408000D01*
X15276000Y-10842000D02*
X15306000Y-10872000D01*
X15306000Y-10842000D02*
X15276000Y-10872000D01*
X15280000Y-9297500D02*
X15310000Y-9327500D01*
X15310000Y-9297500D02*
X15280000Y-9327500D01*
X15299000Y-10687000D02*
X15329000Y-10717000D01*
X15329000Y-10687000D02*
X15299000Y-10717000D01*
X15300000Y-8300000D02*
X15330000Y-8330000D01*
X15330000Y-8300000D02*
X15300000Y-8330000D01*
X15300000Y-9535000D02*
X15330000Y-9565000D01*
X15330000Y-9535000D02*
X15300000Y-9565000D01*
X15301000Y-9112000D02*
X15331000Y-9142000D01*
X15331000Y-9112000D02*
X15301000Y-9142000D01*
X15303000Y-11020598D02*
X15333000Y-11050598D01*
X15333000Y-11020598D02*
X15303000Y-11050598D01*
X15320000Y-10295000D02*
X15350000Y-10325000D01*
X15350000Y-10295000D02*
X15320000Y-10325000D01*
X15328000Y-9850000D02*
X15358000Y-9880000D01*
X15358000Y-9850000D02*
X15328000Y-9880000D01*
X15357500Y-11167500D02*
X15387500Y-11197500D01*
X15387500Y-11167500D02*
X15357500Y-11197500D01*
X15399209Y-10628791D02*
X15429209Y-10658791D01*
X15429209Y-10628791D02*
X15399209Y-10658791D01*
X15419000Y-8563000D02*
X15449000Y-8593000D01*
X15449000Y-8563000D02*
X15419000Y-8593000D01*
X15427500Y-9867500D02*
X15457500Y-9897500D01*
X15457500Y-9867500D02*
X15427500Y-9897500D01*
X15455000Y-9142500D02*
X15485000Y-9172500D01*
X15485000Y-9142500D02*
X15455000Y-9172500D01*
X15455000Y-10067000D02*
X15485000Y-10097000D01*
X15485000Y-10067000D02*
X15455000Y-10097000D01*
X15465000Y-8820000D02*
X15495000Y-8850000D01*
X15495000Y-8820000D02*
X15465000Y-8850000D01*
X15490000Y-9272500D02*
X15520000Y-9302500D01*
X15520000Y-9272500D02*
X15490000Y-9302500D01*
X15511000Y-9875450D02*
X15541000Y-9905450D01*
X15541000Y-9875450D02*
X15511000Y-9905450D01*
X15544000Y-10753147D02*
X15574000Y-10783147D01*
X15574000Y-10753147D02*
X15544000Y-10783147D01*
X15575450Y-9962500D02*
X15605450Y-9992500D01*
X15605450Y-9962500D02*
X15575450Y-9992500D01*
X15588000Y-9280000D02*
X15618000Y-9310000D01*
X15618000Y-9280000D02*
X15588000Y-9310000D01*
X15603000Y-10624210D02*
X15633000Y-10654210D01*
X15633000Y-10624210D02*
X15603000Y-10654210D01*
X15643740Y-10176260D02*
X15673740Y-10206260D01*
X15673740Y-10176260D02*
X15643740Y-10206260D01*
X15662500Y-9242500D02*
X15692500Y-9272500D01*
X15692500Y-9242500D02*
X15662500Y-9272500D01*
X15685000Y-11305000D02*
X15715000Y-11335000D01*
X15715000Y-11305000D02*
X15685000Y-11335000D01*
X15687500Y-9860000D02*
X15717500Y-9890000D01*
X15717500Y-9860000D02*
X15687500Y-9890000D01*
X15698000Y-10624000D02*
X15728000Y-10654000D01*
X15728000Y-10624000D02*
X15698000Y-10654000D01*
X15729000Y-9108000D02*
X15759000Y-9138000D01*
X15759000Y-9108000D02*
X15729000Y-9138000D01*
X15756000Y-10753147D02*
X15786000Y-10783147D01*
X15786000Y-10753147D02*
X15756000Y-10783147D01*
X15759000Y-10540354D02*
X15789000Y-10570354D01*
X15789000Y-10540354D02*
X15759000Y-10570354D01*
X15767500Y-10027500D02*
X15797500Y-10057500D01*
X15797500Y-10027500D02*
X15767500Y-10057500D01*
X15826450Y-9347500D02*
X15856450Y-9377500D01*
X15856450Y-9347500D02*
X15826450Y-9377500D01*
X15827500Y-9512500D02*
X15857500Y-9542500D01*
X15857500Y-9512500D02*
X15827500Y-9542500D01*
X15830000Y-10713550D02*
X15860000Y-10743550D01*
X15860000Y-10713550D02*
X15830000Y-10743550D01*
X15850000Y-8202500D02*
X15880000Y-8232500D01*
X15880000Y-8202500D02*
X15850000Y-8232500D01*
X15865000Y-11145000D02*
X15895000Y-11175000D01*
X15895000Y-11145000D02*
X15865000Y-11175000D01*
X15871709Y-9193659D02*
X15901709Y-9223659D01*
X15901709Y-9193659D02*
X15871709Y-9223659D01*
X15892494Y-9422504D02*
X15922494Y-9452504D01*
X15922494Y-9422504D02*
X15892494Y-9452504D01*
X15912500Y-9132500D02*
X15942500Y-9162500D01*
X15942500Y-9132500D02*
X15912500Y-9162500D01*
X15913501Y-10504501D02*
X15943501Y-10534501D01*
X15943501Y-10504501D02*
X15913501Y-10534501D01*
X15919000Y-10116000D02*
X15949000Y-10146000D01*
X15949000Y-10116000D02*
X15919000Y-10146000D01*
X15941050Y-10403000D02*
X15971050Y-10433000D01*
X15971050Y-10403000D02*
X15941050Y-10433000D01*
X15942500Y-10975000D02*
X15972500Y-11005000D01*
X15972500Y-10975000D02*
X15942500Y-11005000D01*
X15944000Y-9350000D02*
X15974000Y-9380000D01*
X15974000Y-9350000D02*
X15944000Y-9380000D01*
X15953550Y-9852500D02*
X15983550Y-9882500D01*
X15983550Y-9852500D02*
X15953550Y-9882500D01*
X15986000Y-10494950D02*
X16016000Y-10524950D01*
X16016000Y-10494950D02*
X15986000Y-10524950D01*
X16025000Y-8772500D02*
X16055000Y-8802500D01*
X16055000Y-8772500D02*
X16025000Y-8802500D01*
X16064450Y-9826000D02*
X16094450Y-9856000D01*
X16094450Y-9826000D02*
X16064450Y-9856000D01*
X16077500Y-9312500D02*
X16107500Y-9342500D01*
X16107500Y-9312500D02*
X16077500Y-9342500D01*
X16084195Y-9532674D02*
X16114195Y-9562674D01*
X16114195Y-9532674D02*
X16084195Y-9562674D01*
X16087500Y-10155000D02*
X16117500Y-10185000D01*
X16117500Y-10155000D02*
X16087500Y-10185000D01*
X16087500Y-10255000D02*
X16117500Y-10285000D01*
X16117500Y-10255000D02*
X16087500Y-10285000D01*
X16087500Y-10355000D02*
X16117500Y-10385000D01*
X16117500Y-10355000D02*
X16087500Y-10385000D01*
X16092000Y-9757000D02*
X16122000Y-9787000D01*
X16122000Y-9757000D02*
X16092000Y-9787000D01*
X16109450Y-9058000D02*
X16139450Y-9088000D01*
X16139450Y-9058000D02*
X16109450Y-9088000D01*
X16130000Y-8465000D02*
X16160000Y-8495000D01*
X16160000Y-8465000D02*
X16130000Y-8495000D01*
X16133550Y-9165000D02*
X16163550Y-9195000D01*
X16163550Y-9165000D02*
X16133550Y-9195000D01*
X16176000Y-8684099D02*
X16206000Y-8714099D01*
X16206000Y-8684099D02*
X16176000Y-8714099D01*
X16179999Y-10524987D02*
X16209999Y-10554987D01*
X16209999Y-10524987D02*
X16179999Y-10554987D01*
X16187500Y-10155000D02*
X16217500Y-10185000D01*
X16217500Y-10155000D02*
X16187500Y-10185000D01*
X16187500Y-10255000D02*
X16217500Y-10285000D01*
X16217500Y-10255000D02*
X16187500Y-10285000D01*
X16187500Y-10355000D02*
X16217500Y-10385000D01*
X16217500Y-10355000D02*
X16187500Y-10385000D01*
X16189699Y-10661251D02*
X16219699Y-10691251D01*
X16219699Y-10661251D02*
X16189699Y-10691251D01*
X16194010Y-9459010D02*
X16224010Y-9489010D01*
X16224010Y-9459010D02*
X16194010Y-9489010D01*
X16200275Y-9303072D02*
X16230275Y-9333072D01*
X16230275Y-9303072D02*
X16200275Y-9333072D01*
X16215000Y-10757500D02*
X16245000Y-10787500D01*
X16245000Y-10757500D02*
X16215000Y-10787500D01*
X16230000Y-9047500D02*
X16260000Y-9077500D01*
X16260000Y-9047500D02*
X16230000Y-9077500D01*
X16239317Y-9186875D02*
X16269317Y-9216875D01*
X16269317Y-9186875D02*
X16239317Y-9216875D01*
X16253750Y-9626000D02*
X16283750Y-9656000D01*
X16283750Y-9626000D02*
X16253750Y-9656000D01*
X16260000Y-8795000D02*
X16290000Y-8825000D01*
X16290000Y-8795000D02*
X16260000Y-8825000D01*
X16272618Y-9541422D02*
X16302618Y-9571422D01*
X16302618Y-9541422D02*
X16272618Y-9571422D01*
X16285000Y-9130000D02*
X16315000Y-9160000D01*
X16315000Y-9130000D02*
X16285000Y-9160000D01*
X16287500Y-10155000D02*
X16317500Y-10185000D01*
X16317500Y-10155000D02*
X16287500Y-10185000D01*
X16287500Y-10255000D02*
X16317500Y-10285000D01*
X16317500Y-10255000D02*
X16287500Y-10285000D01*
X16287500Y-10355000D02*
X16317500Y-10385000D01*
X16317500Y-10355000D02*
X16287500Y-10385000D01*
X16342000Y-9303073D02*
X16372000Y-9333073D01*
X16372000Y-9303073D02*
X16342000Y-9333073D01*
X16370000Y-9057500D02*
X16400000Y-9087500D01*
X16400000Y-9057500D02*
X16370000Y-9087500D01*
X16380000Y-10707500D02*
X16410000Y-10737500D01*
X16410000Y-10707500D02*
X16380000Y-10737500D01*
X16426950Y-10255000D02*
X16456950Y-10285000D01*
X16456950Y-10255000D02*
X16426950Y-10285000D01*
X16427000Y-10153000D02*
X16457000Y-10183000D01*
X16457000Y-10153000D02*
X16427000Y-10183000D01*
X16429807Y-10349478D02*
X16459807Y-10379478D01*
X16459807Y-10349478D02*
X16429807Y-10379478D01*
X16430000Y-9240000D02*
X16460000Y-9270000D01*
X16460000Y-9240000D02*
X16430000Y-9270000D01*
X16437500Y-8192500D02*
X16467500Y-8222500D01*
X16467500Y-8192500D02*
X16437500Y-8222500D01*
X16452500Y-11690000D02*
X16482500Y-11720000D01*
X16482500Y-11690000D02*
X16452500Y-11720000D01*
X16463924Y-10491174D02*
X16493924Y-10521174D01*
X16493924Y-10491174D02*
X16463924Y-10521174D01*
X16486000Y-8678000D02*
X16516000Y-8708000D01*
X16516000Y-8678000D02*
X16486000Y-8708000D01*
X16525245Y-9480354D02*
X16555245Y-9510354D01*
X16555245Y-9480354D02*
X16525245Y-9510354D01*
X16537791Y-9591209D02*
X16567791Y-9621209D01*
X16567791Y-9591209D02*
X16537791Y-9621209D01*
X16571550Y-9373000D02*
X16601550Y-9403000D01*
X16601550Y-9373000D02*
X16571550Y-9403000D01*
X16580000Y-10569000D02*
X16610000Y-10599000D01*
X16610000Y-10569000D02*
X16580000Y-10599000D01*
X16600272Y-9913871D02*
X16630272Y-9943871D01*
X16630272Y-9913871D02*
X16600272Y-9943871D01*
X16603000Y-10052501D02*
X16633000Y-10082501D01*
X16633000Y-10052501D02*
X16603000Y-10082501D01*
X16607209Y-9503791D02*
X16637209Y-9533791D01*
X16637209Y-9503791D02*
X16607209Y-9533791D01*
X16617402Y-9795000D02*
X16647402Y-9825000D01*
X16647402Y-9795000D02*
X16617402Y-9825000D01*
X16622500Y-9045000D02*
X16652500Y-9075000D01*
X16652500Y-9045000D02*
X16622500Y-9075000D01*
X16626965Y-10304355D02*
X16656965Y-10334355D01*
X16656965Y-10304355D02*
X16626965Y-10334355D01*
X16692000Y-9372000D02*
X16722000Y-9402000D01*
X16722000Y-9372000D02*
X16692000Y-9402000D01*
X16706050Y-10702950D02*
X16736050Y-10732950D01*
X16736050Y-10702950D02*
X16706050Y-10732950D01*
X16713576Y-9021076D02*
X16743576Y-9051076D01*
X16743576Y-9021076D02*
X16713576Y-9051076D01*
X16755000Y-9640000D02*
X16785000Y-9670000D01*
X16785000Y-9640000D02*
X16755000Y-9670000D01*
X16783000Y-8646000D02*
X16813000Y-8676000D01*
X16813000Y-8646000D02*
X16783000Y-8676000D01*
X16785576Y-11026924D02*
X16815576Y-11056924D01*
X16815576Y-11026924D02*
X16785576Y-11056924D01*
X16815000Y-11392500D02*
X16845000Y-11422500D01*
X16845000Y-11392500D02*
X16815000Y-11422500D01*
X16820000Y-10827500D02*
X16850000Y-10857500D01*
X16850000Y-10827500D02*
X16820000Y-10857500D01*
X16824000Y-9164000D02*
X16854000Y-9194000D01*
X16854000Y-9164000D02*
X16824000Y-9194000D01*
X16857500Y-8205000D02*
X16887500Y-8235000D01*
X16887500Y-8205000D02*
X16857500Y-8235000D01*
X16877674Y-10338424D02*
X16907674Y-10368424D01*
X16907674Y-10338424D02*
X16877674Y-10368424D01*
X16902500Y-10907500D02*
X16932500Y-10937500D01*
X16932500Y-10907500D02*
X16902500Y-10937500D01*
X16927500Y-10775000D02*
X16957500Y-10805000D01*
X16957500Y-10775000D02*
X16927500Y-10805000D01*
X16966000Y-9993000D02*
X16996000Y-10023000D01*
X16996000Y-9993000D02*
X16966000Y-10023000D01*
X16975000Y-9917500D02*
X17005000Y-9947500D01*
X17005000Y-9917500D02*
X16975000Y-9947500D01*
X16994000Y-10205000D02*
X17024000Y-10235000D01*
X17024000Y-10205000D02*
X16994000Y-10235000D01*
X16997000Y-10632000D02*
X17027000Y-10662000D01*
X17027000Y-10632000D02*
X16997000Y-10662000D01*
X17010002Y-10321675D02*
X17040002Y-10351675D01*
X17040002Y-10321675D02*
X17010002Y-10351675D01*
X17016153Y-10722500D02*
X17046153Y-10752500D01*
X17046153Y-10722500D02*
X17016153Y-10752500D01*
X17017000Y-11273000D02*
X17047000Y-11303000D01*
X17047000Y-11273000D02*
X17017000Y-11303000D01*
X17057550Y-10377000D02*
X17087550Y-10407000D01*
X17087550Y-10377000D02*
X17057550Y-10407000D01*
X17067312Y-9868445D02*
X17097312Y-9898445D01*
X17097312Y-9868445D02*
X17067312Y-9898445D01*
X17072500Y-10872500D02*
X17102500Y-10902500D01*
X17102500Y-10872500D02*
X17072500Y-10902500D01*
X17075831Y-10021652D02*
X17105831Y-10051652D01*
X17105831Y-10021652D02*
X17075831Y-10051652D01*
X17092500Y-9447500D02*
X17122500Y-9477500D01*
X17122500Y-9447500D02*
X17092500Y-9477500D01*
X17100000Y-11027500D02*
X17130000Y-11057500D01*
X17130000Y-11027500D02*
X17100000Y-11057500D01*
X17155000Y-9995000D02*
X17185000Y-10025000D01*
X17185000Y-9995000D02*
X17155000Y-10025000D01*
X17168703Y-10234153D02*
X17198703Y-10264153D01*
X17198703Y-10234153D02*
X17168703Y-10264153D01*
X17175000Y-8845000D02*
X17205000Y-8875000D01*
X17205000Y-8845000D02*
X17175000Y-8875000D01*
X17180000Y-8740000D02*
X17210000Y-8770000D01*
X17210000Y-8740000D02*
X17180000Y-8770000D01*
X17182326Y-10316326D02*
X17212326Y-10346326D01*
X17212326Y-10316326D02*
X17182326Y-10346326D01*
X17197500Y-8655000D02*
X17227500Y-8685000D01*
X17227500Y-8655000D02*
X17197500Y-8685000D01*
X17205000Y-10625000D02*
X17235000Y-10655000D01*
X17235000Y-10625000D02*
X17205000Y-10655000D01*
X17221000Y-11581000D02*
X17251000Y-11611000D01*
X17251000Y-11581000D02*
X17221000Y-11611000D01*
X17232500Y-10422500D02*
X17262500Y-10452500D01*
X17262500Y-10422500D02*
X17232500Y-10452500D01*
X17250175Y-9480518D02*
X17280175Y-9510518D01*
X17280175Y-9480518D02*
X17250175Y-9510518D01*
X17330000Y-10607500D02*
X17360000Y-10637500D01*
X17360000Y-10607500D02*
X17330000Y-10637500D01*
X17342500Y-8372500D02*
X17372500Y-8402500D01*
X17372500Y-8372500D02*
X17342500Y-8402500D01*
X17355000Y-8892500D02*
X17385000Y-8922500D01*
X17385000Y-8892500D02*
X17355000Y-8922500D01*
X17367500Y-9920000D02*
X17397500Y-9950000D01*
X17397500Y-9920000D02*
X17367500Y-9950000D01*
X17392500Y-10232500D02*
X17422500Y-10262500D01*
X17422500Y-10232500D02*
X17392500Y-10262500D01*
X17440000Y-10721000D02*
X17470000Y-10751000D01*
X17470000Y-10721000D02*
X17440000Y-10751000D01*
X17442500Y-9387500D02*
X17472500Y-9417500D01*
X17472500Y-9387500D02*
X17442500Y-9417500D01*
X17590000Y-11538000D02*
X17620000Y-11568000D01*
X17620000Y-11538000D02*
X17590000Y-11568000D01*
X17825000Y-8365000D02*
X17855000Y-8395000D01*
X17855000Y-8365000D02*
X17825000Y-8395000D01*
X17865000Y-8865000D02*
X17895000Y-8895000D01*
X17895000Y-8865000D02*
X17865000Y-8895000D01*
X17885000Y-9325000D02*
X17915000Y-9355000D01*
X17915000Y-9325000D02*
X17885000Y-9355000D01*
X17905000Y-9765000D02*
X17935000Y-9795000D01*
X17935000Y-9765000D02*
X17905000Y-9795000D01*
D13*
X17087500Y-8545000D02*
G75*
G03*
X17087500Y-8545000I-22500J0D01*
G01*
X17350000Y-8550000D02*
G75*
G03*
X17350000Y-8550000I-22500J0D01*
G01*
D14*
X15717000Y-8397000D02*
X15717000Y-8457000D01*
X15687000Y-8427000D02*
X15747000Y-8427000D01*
D11*
X15737000Y-8457000D02*
X15737000Y-8397000D01*
X15697000Y-8457000D02*
X15697000Y-8397000D01*
X15737000Y-8397000D02*
G75*
G03*
X15697000Y-8397000I-20000J0D01*
G01*
X15697000Y-8457000D02*
G75*
G03*
X15737000Y-8457000I20000J0D01*
G01*
D14*
X15717000Y-8815000D02*
X15717000Y-8875000D01*
X15687000Y-8845000D02*
X15747000Y-8845000D01*
D11*
X15737000Y-8900000D02*
X15737000Y-8790000D01*
X15697000Y-8900000D02*
X15697000Y-8790000D01*
X15737000Y-8790000D02*
G75*
G03*
X15697000Y-8790000I-20000J0D01*
G01*
X15697000Y-8900000D02*
G75*
G03*
X15737000Y-8900000I20000J0D01*
G01*
D14*
X16581000Y-8397000D02*
X16581000Y-8457000D01*
X16551000Y-8427000D02*
X16611000Y-8427000D01*
D11*
X16601000Y-8457000D02*
X16601000Y-8397000D01*
X16561000Y-8457000D02*
X16561000Y-8397000D01*
X16601000Y-8397000D02*
G75*
G03*
X16561000Y-8397000I-20000J0D01*
G01*
X16561000Y-8457000D02*
G75*
G03*
X16601000Y-8457000I20000J0D01*
G01*
D14*
X16581000Y-8815000D02*
X16581000Y-8875000D01*
X16551000Y-8845000D02*
X16611000Y-8845000D01*
D11*
X16601000Y-8900000D02*
X16601000Y-8790000D01*
X16561000Y-8900000D02*
X16561000Y-8790000D01*
X16601000Y-8790000D02*
G75*
G03*
X16561000Y-8790000I-20000J0D01*
G01*
X16561000Y-8900000D02*
G75*
G03*
X16601000Y-8900000I20000J0D01*
G01*
D15*
X14750699Y-10591699D02*
X14750699Y-10532301D01*
X14691301Y-10532301D01*
X14691301Y-10591699D01*
X14750699Y-10591699D01*
X14750699Y-10845699D02*
X14750699Y-10786301D01*
X14691301Y-10786301D01*
X14691301Y-10845699D01*
X14750699Y-10845699D01*
X14750699Y-11099699D02*
X14750699Y-11040301D01*
X14691301Y-11040301D01*
X14691301Y-11099699D01*
X14750699Y-11099699D01*
X14750699Y-11353699D02*
X14750699Y-11294301D01*
X14691301Y-11294301D01*
X14691301Y-11353699D01*
X14750699Y-11353699D01*
X14753199Y-10339199D02*
X14753199Y-10279801D01*
X14693801Y-10279801D01*
X14693801Y-10339199D01*
X14753199Y-10339199D01*
X15048699Y-8305699D02*
X15048699Y-8246301D01*
X14989301Y-8246301D01*
X14989301Y-8305699D01*
X15048699Y-8305699D01*
X15048699Y-8559699D02*
X15048699Y-8500301D01*
X14989301Y-8500301D01*
X14989301Y-8559699D01*
X15048699Y-8559699D01*
X15048699Y-8813699D02*
X15048699Y-8754301D01*
X14989301Y-8754301D01*
X14989301Y-8813699D01*
X15048699Y-8813699D01*
X15048699Y-9067699D02*
X15048699Y-9008301D01*
X14989301Y-9008301D01*
X14989301Y-9067699D01*
X15048699Y-9067699D01*
X15048699Y-9321699D02*
X15048699Y-9262301D01*
X14989301Y-9262301D01*
X14989301Y-9321699D01*
X15048699Y-9321699D01*
X15048699Y-9575699D02*
X15048699Y-9516301D01*
X14989301Y-9516301D01*
X14989301Y-9575699D01*
X15048699Y-9575699D01*
X15048699Y-9829699D02*
X15048699Y-9770301D01*
X14989301Y-9770301D01*
X14989301Y-9829699D01*
X15048699Y-9829699D01*
X15048699Y-10083699D02*
X15048699Y-10024301D01*
X14989301Y-10024301D01*
X14989301Y-10083699D01*
X15048699Y-10083699D01*
X15048699Y-10337699D02*
X15048699Y-10278301D01*
X14989301Y-10278301D01*
X14989301Y-10337699D01*
X15048699Y-10337699D01*
X15048699Y-10591699D02*
X15048699Y-10532301D01*
X14989301Y-10532301D01*
X14989301Y-10591699D01*
X15048699Y-10591699D01*
X15048699Y-10845699D02*
X15048699Y-10786301D01*
X14989301Y-10786301D01*
X14989301Y-10845699D01*
X15048699Y-10845699D01*
X15048699Y-11099699D02*
X15048699Y-11040301D01*
X14989301Y-11040301D01*
X14989301Y-11099699D01*
X15048699Y-11099699D01*
X15048699Y-11353699D02*
X15048699Y-11294301D01*
X14989301Y-11294301D01*
X14989301Y-11353699D01*
X15048699Y-11353699D01*
X17605699Y-8305699D02*
X17605699Y-8246301D01*
X17546301Y-8246301D01*
X17546301Y-8305699D01*
X17605699Y-8305699D01*
X17605699Y-8559699D02*
X17605699Y-8500301D01*
X17546301Y-8500301D01*
X17546301Y-8559699D01*
X17605699Y-8559699D01*
X17605699Y-8813699D02*
X17605699Y-8754301D01*
X17546301Y-8754301D01*
X17546301Y-8813699D01*
X17605699Y-8813699D01*
X17605699Y-9067699D02*
X17605699Y-9008301D01*
X17546301Y-9008301D01*
X17546301Y-9067699D01*
X17605699Y-9067699D01*
X17605699Y-9321699D02*
X17605699Y-9262301D01*
X17546301Y-9262301D01*
X17546301Y-9321699D01*
X17605699Y-9321699D01*
X17605699Y-9575699D02*
X17605699Y-9516301D01*
X17546301Y-9516301D01*
X17546301Y-9575699D01*
X17605699Y-9575699D01*
X17605699Y-9829699D02*
X17605699Y-9770301D01*
X17546301Y-9770301D01*
X17546301Y-9829699D01*
X17605699Y-9829699D01*
X17605699Y-10083699D02*
X17605699Y-10024301D01*
X17546301Y-10024301D01*
X17546301Y-10083699D01*
X17605699Y-10083699D01*
X17605699Y-10337699D02*
X17605699Y-10278301D01*
X17546301Y-10278301D01*
X17546301Y-10337699D01*
X17605699Y-10337699D01*
X17605699Y-10591699D02*
X17605699Y-10532301D01*
X17546301Y-10532301D01*
X17546301Y-10591699D01*
X17605699Y-10591699D01*
X17605699Y-10845699D02*
X17605699Y-10786301D01*
X17546301Y-10786301D01*
X17546301Y-10845699D01*
X17605699Y-10845699D01*
X17605699Y-11099699D02*
X17605699Y-11040301D01*
X17546301Y-11040301D01*
X17546301Y-11099699D01*
X17605699Y-11099699D01*
X17605699Y-11353699D02*
X17605699Y-11294301D01*
X17546301Y-11294301D01*
X17546301Y-11353699D01*
X17605699Y-11353699D01*
X17900699Y-10591699D02*
X17900699Y-10532301D01*
X17841301Y-10532301D01*
X17841301Y-10591699D01*
X17900699Y-10591699D01*
X17900699Y-10845699D02*
X17900699Y-10786301D01*
X17841301Y-10786301D01*
X17841301Y-10845699D01*
X17900699Y-10845699D01*
X17900699Y-11099699D02*
X17900699Y-11040301D01*
X17841301Y-11040301D01*
X17841301Y-11099699D01*
X17900699Y-11099699D01*
X17900699Y-11353699D02*
X17900699Y-11294301D01*
X17841301Y-11294301D01*
X17841301Y-11353699D01*
X17900699Y-11353699D01*
D16*
X15860000Y-8824500D02*
X15892500Y-8792000D01*
X15860000Y-8759500D01*
X15827500Y-8792000D01*
X15860000Y-8824500D01*
X16438000Y-8824500D02*
X16470500Y-8792000D01*
X16438000Y-8759500D01*
X16405500Y-8792000D01*
X16438000Y-8824500D01*
D11*
X14705119Y-12583476D02*
X14705119Y-12383476D01*
X14705119Y-12383476D02*
X14752738Y-12383476D01*
X14752738Y-12383476D02*
X14781309Y-12393000D01*
X14781309Y-12393000D02*
X14800357Y-12412048D01*
X14800357Y-12412048D02*
X14809881Y-12431095D01*
X14809881Y-12431095D02*
X14819405Y-12469190D01*
X14819405Y-12469190D02*
X14819405Y-12497762D01*
X14819405Y-12497762D02*
X14809881Y-12535857D01*
X14809881Y-12535857D02*
X14800357Y-12554905D01*
X14800357Y-12554905D02*
X14781309Y-12573952D01*
X14781309Y-12573952D02*
X14752738Y-12583476D01*
X14752738Y-12583476D02*
X14705119Y-12583476D01*
X14905119Y-12583476D02*
X14905119Y-12450143D01*
X14905119Y-12488238D02*
X14914643Y-12469190D01*
X14914643Y-12469190D02*
X14924167Y-12459667D01*
X14924167Y-12459667D02*
X14943214Y-12450143D01*
X14943214Y-12450143D02*
X14962262Y-12450143D01*
X15028928Y-12583476D02*
X15028928Y-12450143D01*
X15028928Y-12383476D02*
X15019405Y-12393000D01*
X15019405Y-12393000D02*
X15028928Y-12402524D01*
X15028928Y-12402524D02*
X15038452Y-12393000D01*
X15038452Y-12393000D02*
X15028928Y-12383476D01*
X15028928Y-12383476D02*
X15028928Y-12402524D01*
X15152738Y-12583476D02*
X15133690Y-12573952D01*
X15133690Y-12573952D02*
X15124167Y-12554905D01*
X15124167Y-12554905D02*
X15124167Y-12383476D01*
X15257500Y-12583476D02*
X15238452Y-12573952D01*
X15238452Y-12573952D02*
X15228928Y-12554905D01*
X15228928Y-12554905D02*
X15228928Y-12383476D01*
X15453690Y-12583476D02*
X15453690Y-12383476D01*
X15453690Y-12383476D02*
X15520357Y-12526333D01*
X15520357Y-12526333D02*
X15587024Y-12383476D01*
X15587024Y-12383476D02*
X15587024Y-12583476D01*
X15767976Y-12583476D02*
X15767976Y-12478714D01*
X15767976Y-12478714D02*
X15758452Y-12459667D01*
X15758452Y-12459667D02*
X15739405Y-12450143D01*
X15739405Y-12450143D02*
X15701309Y-12450143D01*
X15701309Y-12450143D02*
X15682262Y-12459667D01*
X15767976Y-12573952D02*
X15748928Y-12583476D01*
X15748928Y-12583476D02*
X15701309Y-12583476D01*
X15701309Y-12583476D02*
X15682262Y-12573952D01*
X15682262Y-12573952D02*
X15672738Y-12554905D01*
X15672738Y-12554905D02*
X15672738Y-12535857D01*
X15672738Y-12535857D02*
X15682262Y-12516809D01*
X15682262Y-12516809D02*
X15701309Y-12507286D01*
X15701309Y-12507286D02*
X15748928Y-12507286D01*
X15748928Y-12507286D02*
X15767976Y-12497762D01*
X15863214Y-12450143D02*
X15863214Y-12650143D01*
X15863214Y-12459667D02*
X15882262Y-12450143D01*
X15882262Y-12450143D02*
X15920357Y-12450143D01*
X15920357Y-12450143D02*
X15939405Y-12459667D01*
X15939405Y-12459667D02*
X15948928Y-12469190D01*
X15948928Y-12469190D02*
X15958452Y-12488238D01*
X15958452Y-12488238D02*
X15958452Y-12545381D01*
X15958452Y-12545381D02*
X15948928Y-12564428D01*
X15948928Y-12564428D02*
X15939405Y-12573952D01*
X15939405Y-12573952D02*
X15920357Y-12583476D01*
X15920357Y-12583476D02*
X15882262Y-12583476D01*
X15882262Y-12583476D02*
X15863214Y-12573952D01*
X16044167Y-12564428D02*
X16053690Y-12573952D01*
X16053690Y-12573952D02*
X16044167Y-12583476D01*
X16044167Y-12583476D02*
X16034643Y-12573952D01*
X16034643Y-12573952D02*
X16044167Y-12564428D01*
X16044167Y-12564428D02*
X16044167Y-12583476D01*
X16044167Y-12459667D02*
X16053690Y-12469190D01*
X16053690Y-12469190D02*
X16044167Y-12478714D01*
X16044167Y-12478714D02*
X16034643Y-12469190D01*
X16034643Y-12469190D02*
X16044167Y-12459667D01*
X16044167Y-12459667D02*
X16044167Y-12478714D01*
D12*
X14427500Y-12915000D02*
X14457500Y-12945000D01*
X14457500Y-12915000D02*
X14427500Y-12945000D01*
D11*
X14743214Y-12803476D02*
X14762262Y-12803476D01*
X14762262Y-12803476D02*
X14781309Y-12813000D01*
X14781309Y-12813000D02*
X14790833Y-12822524D01*
X14790833Y-12822524D02*
X14800357Y-12841571D01*
X14800357Y-12841571D02*
X14809881Y-12879667D01*
X14809881Y-12879667D02*
X14809881Y-12927286D01*
X14809881Y-12927286D02*
X14800357Y-12965381D01*
X14800357Y-12965381D02*
X14790833Y-12984428D01*
X14790833Y-12984428D02*
X14781309Y-12993952D01*
X14781309Y-12993952D02*
X14762262Y-13003476D01*
X14762262Y-13003476D02*
X14743214Y-13003476D01*
X14743214Y-13003476D02*
X14724167Y-12993952D01*
X14724167Y-12993952D02*
X14714643Y-12984428D01*
X14714643Y-12984428D02*
X14705119Y-12965381D01*
X14705119Y-12965381D02*
X14695595Y-12927286D01*
X14695595Y-12927286D02*
X14695595Y-12879667D01*
X14695595Y-12879667D02*
X14705119Y-12841571D01*
X14705119Y-12841571D02*
X14714643Y-12822524D01*
X14714643Y-12822524D02*
X14724167Y-12813000D01*
X14724167Y-12813000D02*
X14743214Y-12803476D01*
X14895595Y-12984428D02*
X14905119Y-12993952D01*
X14905119Y-12993952D02*
X14895595Y-13003476D01*
X14895595Y-13003476D02*
X14886071Y-12993952D01*
X14886071Y-12993952D02*
X14895595Y-12984428D01*
X14895595Y-12984428D02*
X14895595Y-13003476D01*
X14971786Y-12803476D02*
X15095595Y-12803476D01*
X15095595Y-12803476D02*
X15028928Y-12879667D01*
X15028928Y-12879667D02*
X15057500Y-12879667D01*
X15057500Y-12879667D02*
X15076548Y-12889190D01*
X15076548Y-12889190D02*
X15086071Y-12898714D01*
X15086071Y-12898714D02*
X15095595Y-12917762D01*
X15095595Y-12917762D02*
X15095595Y-12965381D01*
X15095595Y-12965381D02*
X15086071Y-12984428D01*
X15086071Y-12984428D02*
X15076548Y-12993952D01*
X15076548Y-12993952D02*
X15057500Y-13003476D01*
X15057500Y-13003476D02*
X15000357Y-13003476D01*
X15000357Y-13003476D02*
X14981309Y-12993952D01*
X14981309Y-12993952D02*
X14971786Y-12984428D01*
X15219405Y-12803476D02*
X15238452Y-12803476D01*
X15238452Y-12803476D02*
X15257500Y-12813000D01*
X15257500Y-12813000D02*
X15267024Y-12822524D01*
X15267024Y-12822524D02*
X15276548Y-12841571D01*
X15276548Y-12841571D02*
X15286071Y-12879667D01*
X15286071Y-12879667D02*
X15286071Y-12927286D01*
X15286071Y-12927286D02*
X15276548Y-12965381D01*
X15276548Y-12965381D02*
X15267024Y-12984428D01*
X15267024Y-12984428D02*
X15257500Y-12993952D01*
X15257500Y-12993952D02*
X15238452Y-13003476D01*
X15238452Y-13003476D02*
X15219405Y-13003476D01*
X15219405Y-13003476D02*
X15200357Y-12993952D01*
X15200357Y-12993952D02*
X15190833Y-12984428D01*
X15190833Y-12984428D02*
X15181309Y-12965381D01*
X15181309Y-12965381D02*
X15171786Y-12927286D01*
X15171786Y-12927286D02*
X15171786Y-12879667D01*
X15171786Y-12879667D02*
X15181309Y-12841571D01*
X15181309Y-12841571D02*
X15190833Y-12822524D01*
X15190833Y-12822524D02*
X15200357Y-12813000D01*
X15200357Y-12813000D02*
X15219405Y-12803476D01*
X15409881Y-12803476D02*
X15428929Y-12803476D01*
X15428929Y-12803476D02*
X15447976Y-12813000D01*
X15447976Y-12813000D02*
X15457500Y-12822524D01*
X15457500Y-12822524D02*
X15467024Y-12841571D01*
X15467024Y-12841571D02*
X15476548Y-12879667D01*
X15476548Y-12879667D02*
X15476548Y-12927286D01*
X15476548Y-12927286D02*
X15467024Y-12965381D01*
X15467024Y-12965381D02*
X15457500Y-12984428D01*
X15457500Y-12984428D02*
X15447976Y-12993952D01*
X15447976Y-12993952D02*
X15428929Y-13003476D01*
X15428929Y-13003476D02*
X15409881Y-13003476D01*
X15409881Y-13003476D02*
X15390833Y-12993952D01*
X15390833Y-12993952D02*
X15381309Y-12984428D01*
X15381309Y-12984428D02*
X15371786Y-12965381D01*
X15371786Y-12965381D02*
X15362262Y-12927286D01*
X15362262Y-12927286D02*
X15362262Y-12879667D01*
X15362262Y-12879667D02*
X15371786Y-12841571D01*
X15371786Y-12841571D02*
X15381309Y-12822524D01*
X15381309Y-12822524D02*
X15390833Y-12813000D01*
X15390833Y-12813000D02*
X15409881Y-12803476D01*
X15562262Y-13003476D02*
X15562262Y-12870143D01*
X15562262Y-12889190D02*
X15571786Y-12879667D01*
X15571786Y-12879667D02*
X15590833Y-12870143D01*
X15590833Y-12870143D02*
X15619405Y-12870143D01*
X15619405Y-12870143D02*
X15638452Y-12879667D01*
X15638452Y-12879667D02*
X15647976Y-12898714D01*
X15647976Y-12898714D02*
X15647976Y-13003476D01*
X15647976Y-12898714D02*
X15657500Y-12879667D01*
X15657500Y-12879667D02*
X15676548Y-12870143D01*
X15676548Y-12870143D02*
X15705119Y-12870143D01*
X15705119Y-12870143D02*
X15724167Y-12879667D01*
X15724167Y-12879667D02*
X15733690Y-12898714D01*
X15733690Y-12898714D02*
X15733690Y-13003476D01*
X15828929Y-13003476D02*
X15828929Y-12870143D01*
X15828929Y-12889190D02*
X15838452Y-12879667D01*
X15838452Y-12879667D02*
X15857500Y-12870143D01*
X15857500Y-12870143D02*
X15886071Y-12870143D01*
X15886071Y-12870143D02*
X15905119Y-12879667D01*
X15905119Y-12879667D02*
X15914643Y-12898714D01*
X15914643Y-12898714D02*
X15914643Y-13003476D01*
X15914643Y-12898714D02*
X15924167Y-12879667D01*
X15924167Y-12879667D02*
X15943214Y-12870143D01*
X15943214Y-12870143D02*
X15971786Y-12870143D01*
X15971786Y-12870143D02*
X15990833Y-12879667D01*
X15990833Y-12879667D02*
X16000357Y-12898714D01*
X16000357Y-12898714D02*
X16000357Y-13003476D01*
X16358452Y-12793952D02*
X16187024Y-13051095D01*
X16583214Y-12803476D02*
X16602262Y-12803476D01*
X16602262Y-12803476D02*
X16621310Y-12813000D01*
X16621310Y-12813000D02*
X16630833Y-12822524D01*
X16630833Y-12822524D02*
X16640357Y-12841571D01*
X16640357Y-12841571D02*
X16649881Y-12879667D01*
X16649881Y-12879667D02*
X16649881Y-12927286D01*
X16649881Y-12927286D02*
X16640357Y-12965381D01*
X16640357Y-12965381D02*
X16630833Y-12984428D01*
X16630833Y-12984428D02*
X16621310Y-12993952D01*
X16621310Y-12993952D02*
X16602262Y-13003476D01*
X16602262Y-13003476D02*
X16583214Y-13003476D01*
X16583214Y-13003476D02*
X16564167Y-12993952D01*
X16564167Y-12993952D02*
X16554643Y-12984428D01*
X16554643Y-12984428D02*
X16545119Y-12965381D01*
X16545119Y-12965381D02*
X16535595Y-12927286D01*
X16535595Y-12927286D02*
X16535595Y-12879667D01*
X16535595Y-12879667D02*
X16545119Y-12841571D01*
X16545119Y-12841571D02*
X16554643Y-12822524D01*
X16554643Y-12822524D02*
X16564167Y-12813000D01*
X16564167Y-12813000D02*
X16583214Y-12803476D01*
X16735595Y-12984428D02*
X16745119Y-12993952D01*
X16745119Y-12993952D02*
X16735595Y-13003476D01*
X16735595Y-13003476D02*
X16726071Y-12993952D01*
X16726071Y-12993952D02*
X16735595Y-12984428D01*
X16735595Y-12984428D02*
X16735595Y-13003476D01*
X16868929Y-12803476D02*
X16887976Y-12803476D01*
X16887976Y-12803476D02*
X16907024Y-12813000D01*
X16907024Y-12813000D02*
X16916548Y-12822524D01*
X16916548Y-12822524D02*
X16926072Y-12841571D01*
X16926072Y-12841571D02*
X16935595Y-12879667D01*
X16935595Y-12879667D02*
X16935595Y-12927286D01*
X16935595Y-12927286D02*
X16926072Y-12965381D01*
X16926072Y-12965381D02*
X16916548Y-12984428D01*
X16916548Y-12984428D02*
X16907024Y-12993952D01*
X16907024Y-12993952D02*
X16887976Y-13003476D01*
X16887976Y-13003476D02*
X16868929Y-13003476D01*
X16868929Y-13003476D02*
X16849881Y-12993952D01*
X16849881Y-12993952D02*
X16840357Y-12984428D01*
X16840357Y-12984428D02*
X16830833Y-12965381D01*
X16830833Y-12965381D02*
X16821310Y-12927286D01*
X16821310Y-12927286D02*
X16821310Y-12879667D01*
X16821310Y-12879667D02*
X16830833Y-12841571D01*
X16830833Y-12841571D02*
X16840357Y-12822524D01*
X16840357Y-12822524D02*
X16849881Y-12813000D01*
X16849881Y-12813000D02*
X16868929Y-12803476D01*
X17126072Y-13003476D02*
X17011786Y-13003476D01*
X17068929Y-13003476D02*
X17068929Y-12803476D01*
X17068929Y-12803476D02*
X17049881Y-12832048D01*
X17049881Y-12832048D02*
X17030833Y-12851095D01*
X17030833Y-12851095D02*
X17011786Y-12860619D01*
X17316548Y-13003476D02*
X17202262Y-13003476D01*
X17259405Y-13003476D02*
X17259405Y-12803476D01*
X17259405Y-12803476D02*
X17240357Y-12832048D01*
X17240357Y-12832048D02*
X17221310Y-12851095D01*
X17221310Y-12851095D02*
X17202262Y-12860619D01*
X17430833Y-12889190D02*
X17411786Y-12879667D01*
X17411786Y-12879667D02*
X17402262Y-12870143D01*
X17402262Y-12870143D02*
X17392738Y-12851095D01*
X17392738Y-12851095D02*
X17392738Y-12841571D01*
X17392738Y-12841571D02*
X17402262Y-12822524D01*
X17402262Y-12822524D02*
X17411786Y-12813000D01*
X17411786Y-12813000D02*
X17430833Y-12803476D01*
X17430833Y-12803476D02*
X17468929Y-12803476D01*
X17468929Y-12803476D02*
X17487976Y-12813000D01*
X17487976Y-12813000D02*
X17497500Y-12822524D01*
X17497500Y-12822524D02*
X17507024Y-12841571D01*
X17507024Y-12841571D02*
X17507024Y-12851095D01*
X17507024Y-12851095D02*
X17497500Y-12870143D01*
X17497500Y-12870143D02*
X17487976Y-12879667D01*
X17487976Y-12879667D02*
X17468929Y-12889190D01*
X17468929Y-12889190D02*
X17430833Y-12889190D01*
X17430833Y-12889190D02*
X17411786Y-12898714D01*
X17411786Y-12898714D02*
X17402262Y-12908238D01*
X17402262Y-12908238D02*
X17392738Y-12927286D01*
X17392738Y-12927286D02*
X17392738Y-12965381D01*
X17392738Y-12965381D02*
X17402262Y-12984428D01*
X17402262Y-12984428D02*
X17411786Y-12993952D01*
X17411786Y-12993952D02*
X17430833Y-13003476D01*
X17430833Y-13003476D02*
X17468929Y-13003476D01*
X17468929Y-13003476D02*
X17487976Y-12993952D01*
X17487976Y-12993952D02*
X17497500Y-12984428D01*
X17497500Y-12984428D02*
X17507024Y-12965381D01*
X17507024Y-12965381D02*
X17507024Y-12927286D01*
X17507024Y-12927286D02*
X17497500Y-12908238D01*
X17497500Y-12908238D02*
X17487976Y-12898714D01*
X17487976Y-12898714D02*
X17468929Y-12889190D01*
X17583214Y-12803476D02*
X17583214Y-12841571D01*
X17659405Y-12803476D02*
X17659405Y-12841571D01*
X17922262Y-13079667D02*
X17912738Y-13070143D01*
X17912738Y-13070143D02*
X17893691Y-13041571D01*
X17893691Y-13041571D02*
X17884167Y-13022524D01*
X17884167Y-13022524D02*
X17874643Y-12993952D01*
X17874643Y-12993952D02*
X17865119Y-12946333D01*
X17865119Y-12946333D02*
X17865119Y-12908238D01*
X17865119Y-12908238D02*
X17874643Y-12860619D01*
X17874643Y-12860619D02*
X17884167Y-12832048D01*
X17884167Y-12832048D02*
X17893691Y-12813000D01*
X17893691Y-12813000D02*
X17912738Y-12784428D01*
X17912738Y-12784428D02*
X17922262Y-12774905D01*
X18103214Y-13003476D02*
X17988929Y-13003476D01*
X18046072Y-13003476D02*
X18046072Y-12803476D01*
X18046072Y-12803476D02*
X18027024Y-12832048D01*
X18027024Y-12832048D02*
X18007976Y-12851095D01*
X18007976Y-12851095D02*
X17988929Y-12860619D01*
X18274643Y-12803476D02*
X18236548Y-12803476D01*
X18236548Y-12803476D02*
X18217500Y-12813000D01*
X18217500Y-12813000D02*
X18207976Y-12822524D01*
X18207976Y-12822524D02*
X18188929Y-12851095D01*
X18188929Y-12851095D02*
X18179405Y-12889190D01*
X18179405Y-12889190D02*
X18179405Y-12965381D01*
X18179405Y-12965381D02*
X18188929Y-12984428D01*
X18188929Y-12984428D02*
X18198453Y-12993952D01*
X18198453Y-12993952D02*
X18217500Y-13003476D01*
X18217500Y-13003476D02*
X18255595Y-13003476D01*
X18255595Y-13003476D02*
X18274643Y-12993952D01*
X18274643Y-12993952D02*
X18284167Y-12984428D01*
X18284167Y-12984428D02*
X18293691Y-12965381D01*
X18293691Y-12965381D02*
X18293691Y-12917762D01*
X18293691Y-12917762D02*
X18284167Y-12898714D01*
X18284167Y-12898714D02*
X18274643Y-12889190D01*
X18274643Y-12889190D02*
X18255595Y-12879667D01*
X18255595Y-12879667D02*
X18217500Y-12879667D01*
X18217500Y-12879667D02*
X18198453Y-12889190D01*
X18198453Y-12889190D02*
X18188929Y-12898714D01*
X18188929Y-12898714D02*
X18179405Y-12917762D01*
X18465119Y-12870143D02*
X18465119Y-13003476D01*
X18417500Y-12793952D02*
X18369881Y-12936809D01*
X18369881Y-12936809D02*
X18493691Y-12936809D01*
X18689881Y-13003476D02*
X18689881Y-12803476D01*
X18775595Y-13003476D02*
X18775595Y-12898714D01*
X18775595Y-12898714D02*
X18766072Y-12879667D01*
X18766072Y-12879667D02*
X18747024Y-12870143D01*
X18747024Y-12870143D02*
X18718453Y-12870143D01*
X18718453Y-12870143D02*
X18699405Y-12879667D01*
X18699405Y-12879667D02*
X18689881Y-12889190D01*
X18899405Y-13003476D02*
X18880357Y-12993952D01*
X18880357Y-12993952D02*
X18870834Y-12984428D01*
X18870834Y-12984428D02*
X18861310Y-12965381D01*
X18861310Y-12965381D02*
X18861310Y-12908238D01*
X18861310Y-12908238D02*
X18870834Y-12889190D01*
X18870834Y-12889190D02*
X18880357Y-12879667D01*
X18880357Y-12879667D02*
X18899405Y-12870143D01*
X18899405Y-12870143D02*
X18927976Y-12870143D01*
X18927976Y-12870143D02*
X18947024Y-12879667D01*
X18947024Y-12879667D02*
X18956548Y-12889190D01*
X18956548Y-12889190D02*
X18966072Y-12908238D01*
X18966072Y-12908238D02*
X18966072Y-12965381D01*
X18966072Y-12965381D02*
X18956548Y-12984428D01*
X18956548Y-12984428D02*
X18947024Y-12993952D01*
X18947024Y-12993952D02*
X18927976Y-13003476D01*
X18927976Y-13003476D02*
X18899405Y-13003476D01*
X19080357Y-13003476D02*
X19061310Y-12993952D01*
X19061310Y-12993952D02*
X19051786Y-12974905D01*
X19051786Y-12974905D02*
X19051786Y-12803476D01*
X19232738Y-12993952D02*
X19213691Y-13003476D01*
X19213691Y-13003476D02*
X19175595Y-13003476D01*
X19175595Y-13003476D02*
X19156548Y-12993952D01*
X19156548Y-12993952D02*
X19147024Y-12974905D01*
X19147024Y-12974905D02*
X19147024Y-12898714D01*
X19147024Y-12898714D02*
X19156548Y-12879667D01*
X19156548Y-12879667D02*
X19175595Y-12870143D01*
X19175595Y-12870143D02*
X19213691Y-12870143D01*
X19213691Y-12870143D02*
X19232738Y-12879667D01*
X19232738Y-12879667D02*
X19242262Y-12898714D01*
X19242262Y-12898714D02*
X19242262Y-12917762D01*
X19242262Y-12917762D02*
X19147024Y-12936809D01*
X19318453Y-12993952D02*
X19337500Y-13003476D01*
X19337500Y-13003476D02*
X19375595Y-13003476D01*
X19375595Y-13003476D02*
X19394643Y-12993952D01*
X19394643Y-12993952D02*
X19404167Y-12974905D01*
X19404167Y-12974905D02*
X19404167Y-12965381D01*
X19404167Y-12965381D02*
X19394643Y-12946333D01*
X19394643Y-12946333D02*
X19375595Y-12936809D01*
X19375595Y-12936809D02*
X19347024Y-12936809D01*
X19347024Y-12936809D02*
X19327976Y-12927286D01*
X19327976Y-12927286D02*
X19318453Y-12908238D01*
X19318453Y-12908238D02*
X19318453Y-12898714D01*
X19318453Y-12898714D02*
X19327976Y-12879667D01*
X19327976Y-12879667D02*
X19347024Y-12870143D01*
X19347024Y-12870143D02*
X19375595Y-12870143D01*
X19375595Y-12870143D02*
X19394643Y-12879667D01*
X19470834Y-13079667D02*
X19480357Y-13070143D01*
X19480357Y-13070143D02*
X19499405Y-13041571D01*
X19499405Y-13041571D02*
X19508929Y-13022524D01*
X19508929Y-13022524D02*
X19518453Y-12993952D01*
X19518453Y-12993952D02*
X19527976Y-12946333D01*
X19527976Y-12946333D02*
X19527976Y-12908238D01*
X19527976Y-12908238D02*
X19518453Y-12860619D01*
X19518453Y-12860619D02*
X19508929Y-12832048D01*
X19508929Y-12832048D02*
X19499405Y-12813000D01*
X19499405Y-12813000D02*
X19480357Y-12784428D01*
X19480357Y-12784428D02*
X19470834Y-12774905D01*
D13*
X14457500Y-13194000D02*
G75*
G03*
X14457500Y-13194000I-22500J0D01*
G01*
D11*
X14743214Y-13067476D02*
X14762262Y-13067476D01*
X14762262Y-13067476D02*
X14781309Y-13077000D01*
X14781309Y-13077000D02*
X14790833Y-13086524D01*
X14790833Y-13086524D02*
X14800357Y-13105571D01*
X14800357Y-13105571D02*
X14809881Y-13143667D01*
X14809881Y-13143667D02*
X14809881Y-13191286D01*
X14809881Y-13191286D02*
X14800357Y-13229381D01*
X14800357Y-13229381D02*
X14790833Y-13248428D01*
X14790833Y-13248428D02*
X14781309Y-13257952D01*
X14781309Y-13257952D02*
X14762262Y-13267476D01*
X14762262Y-13267476D02*
X14743214Y-13267476D01*
X14743214Y-13267476D02*
X14724167Y-13257952D01*
X14724167Y-13257952D02*
X14714643Y-13248428D01*
X14714643Y-13248428D02*
X14705119Y-13229381D01*
X14705119Y-13229381D02*
X14695595Y-13191286D01*
X14695595Y-13191286D02*
X14695595Y-13143667D01*
X14695595Y-13143667D02*
X14705119Y-13105571D01*
X14705119Y-13105571D02*
X14714643Y-13086524D01*
X14714643Y-13086524D02*
X14724167Y-13077000D01*
X14724167Y-13077000D02*
X14743214Y-13067476D01*
X14895595Y-13248428D02*
X14905119Y-13257952D01*
X14905119Y-13257952D02*
X14895595Y-13267476D01*
X14895595Y-13267476D02*
X14886071Y-13257952D01*
X14886071Y-13257952D02*
X14895595Y-13248428D01*
X14895595Y-13248428D02*
X14895595Y-13267476D01*
X15076548Y-13134143D02*
X15076548Y-13267476D01*
X15028928Y-13057952D02*
X14981309Y-13200809D01*
X14981309Y-13200809D02*
X15105119Y-13200809D01*
X15276548Y-13067476D02*
X15181309Y-13067476D01*
X15181309Y-13067476D02*
X15171786Y-13162714D01*
X15171786Y-13162714D02*
X15181309Y-13153190D01*
X15181309Y-13153190D02*
X15200357Y-13143667D01*
X15200357Y-13143667D02*
X15247976Y-13143667D01*
X15247976Y-13143667D02*
X15267024Y-13153190D01*
X15267024Y-13153190D02*
X15276548Y-13162714D01*
X15276548Y-13162714D02*
X15286071Y-13181762D01*
X15286071Y-13181762D02*
X15286071Y-13229381D01*
X15286071Y-13229381D02*
X15276548Y-13248428D01*
X15276548Y-13248428D02*
X15267024Y-13257952D01*
X15267024Y-13257952D02*
X15247976Y-13267476D01*
X15247976Y-13267476D02*
X15200357Y-13267476D01*
X15200357Y-13267476D02*
X15181309Y-13257952D01*
X15181309Y-13257952D02*
X15171786Y-13248428D01*
X15409881Y-13067476D02*
X15428929Y-13067476D01*
X15428929Y-13067476D02*
X15447976Y-13077000D01*
X15447976Y-13077000D02*
X15457500Y-13086524D01*
X15457500Y-13086524D02*
X15467024Y-13105571D01*
X15467024Y-13105571D02*
X15476548Y-13143667D01*
X15476548Y-13143667D02*
X15476548Y-13191286D01*
X15476548Y-13191286D02*
X15467024Y-13229381D01*
X15467024Y-13229381D02*
X15457500Y-13248428D01*
X15457500Y-13248428D02*
X15447976Y-13257952D01*
X15447976Y-13257952D02*
X15428929Y-13267476D01*
X15428929Y-13267476D02*
X15409881Y-13267476D01*
X15409881Y-13267476D02*
X15390833Y-13257952D01*
X15390833Y-13257952D02*
X15381309Y-13248428D01*
X15381309Y-13248428D02*
X15371786Y-13229381D01*
X15371786Y-13229381D02*
X15362262Y-13191286D01*
X15362262Y-13191286D02*
X15362262Y-13143667D01*
X15362262Y-13143667D02*
X15371786Y-13105571D01*
X15371786Y-13105571D02*
X15381309Y-13086524D01*
X15381309Y-13086524D02*
X15390833Y-13077000D01*
X15390833Y-13077000D02*
X15409881Y-13067476D01*
X15562262Y-13267476D02*
X15562262Y-13134143D01*
X15562262Y-13153190D02*
X15571786Y-13143667D01*
X15571786Y-13143667D02*
X15590833Y-13134143D01*
X15590833Y-13134143D02*
X15619405Y-13134143D01*
X15619405Y-13134143D02*
X15638452Y-13143667D01*
X15638452Y-13143667D02*
X15647976Y-13162714D01*
X15647976Y-13162714D02*
X15647976Y-13267476D01*
X15647976Y-13162714D02*
X15657500Y-13143667D01*
X15657500Y-13143667D02*
X15676548Y-13134143D01*
X15676548Y-13134143D02*
X15705119Y-13134143D01*
X15705119Y-13134143D02*
X15724167Y-13143667D01*
X15724167Y-13143667D02*
X15733690Y-13162714D01*
X15733690Y-13162714D02*
X15733690Y-13267476D01*
X15828929Y-13267476D02*
X15828929Y-13134143D01*
X15828929Y-13153190D02*
X15838452Y-13143667D01*
X15838452Y-13143667D02*
X15857500Y-13134143D01*
X15857500Y-13134143D02*
X15886071Y-13134143D01*
X15886071Y-13134143D02*
X15905119Y-13143667D01*
X15905119Y-13143667D02*
X15914643Y-13162714D01*
X15914643Y-13162714D02*
X15914643Y-13267476D01*
X15914643Y-13162714D02*
X15924167Y-13143667D01*
X15924167Y-13143667D02*
X15943214Y-13134143D01*
X15943214Y-13134143D02*
X15971786Y-13134143D01*
X15971786Y-13134143D02*
X15990833Y-13143667D01*
X15990833Y-13143667D02*
X16000357Y-13162714D01*
X16000357Y-13162714D02*
X16000357Y-13267476D01*
X16358452Y-13057952D02*
X16187024Y-13315095D01*
X16583214Y-13067476D02*
X16602262Y-13067476D01*
X16602262Y-13067476D02*
X16621310Y-13077000D01*
X16621310Y-13077000D02*
X16630833Y-13086524D01*
X16630833Y-13086524D02*
X16640357Y-13105571D01*
X16640357Y-13105571D02*
X16649881Y-13143667D01*
X16649881Y-13143667D02*
X16649881Y-13191286D01*
X16649881Y-13191286D02*
X16640357Y-13229381D01*
X16640357Y-13229381D02*
X16630833Y-13248428D01*
X16630833Y-13248428D02*
X16621310Y-13257952D01*
X16621310Y-13257952D02*
X16602262Y-13267476D01*
X16602262Y-13267476D02*
X16583214Y-13267476D01*
X16583214Y-13267476D02*
X16564167Y-13257952D01*
X16564167Y-13257952D02*
X16554643Y-13248428D01*
X16554643Y-13248428D02*
X16545119Y-13229381D01*
X16545119Y-13229381D02*
X16535595Y-13191286D01*
X16535595Y-13191286D02*
X16535595Y-13143667D01*
X16535595Y-13143667D02*
X16545119Y-13105571D01*
X16545119Y-13105571D02*
X16554643Y-13086524D01*
X16554643Y-13086524D02*
X16564167Y-13077000D01*
X16564167Y-13077000D02*
X16583214Y-13067476D01*
X16735595Y-13248428D02*
X16745119Y-13257952D01*
X16745119Y-13257952D02*
X16735595Y-13267476D01*
X16735595Y-13267476D02*
X16726071Y-13257952D01*
X16726071Y-13257952D02*
X16735595Y-13248428D01*
X16735595Y-13248428D02*
X16735595Y-13267476D01*
X16868929Y-13067476D02*
X16887976Y-13067476D01*
X16887976Y-13067476D02*
X16907024Y-13077000D01*
X16907024Y-13077000D02*
X16916548Y-13086524D01*
X16916548Y-13086524D02*
X16926072Y-13105571D01*
X16926072Y-13105571D02*
X16935595Y-13143667D01*
X16935595Y-13143667D02*
X16935595Y-13191286D01*
X16935595Y-13191286D02*
X16926072Y-13229381D01*
X16926072Y-13229381D02*
X16916548Y-13248428D01*
X16916548Y-13248428D02*
X16907024Y-13257952D01*
X16907024Y-13257952D02*
X16887976Y-13267476D01*
X16887976Y-13267476D02*
X16868929Y-13267476D01*
X16868929Y-13267476D02*
X16849881Y-13257952D01*
X16849881Y-13257952D02*
X16840357Y-13248428D01*
X16840357Y-13248428D02*
X16830833Y-13229381D01*
X16830833Y-13229381D02*
X16821310Y-13191286D01*
X16821310Y-13191286D02*
X16821310Y-13143667D01*
X16821310Y-13143667D02*
X16830833Y-13105571D01*
X16830833Y-13105571D02*
X16840357Y-13086524D01*
X16840357Y-13086524D02*
X16849881Y-13077000D01*
X16849881Y-13077000D02*
X16868929Y-13067476D01*
X17126072Y-13267476D02*
X17011786Y-13267476D01*
X17068929Y-13267476D02*
X17068929Y-13067476D01*
X17068929Y-13067476D02*
X17049881Y-13096048D01*
X17049881Y-13096048D02*
X17030833Y-13115095D01*
X17030833Y-13115095D02*
X17011786Y-13124619D01*
X17192738Y-13067476D02*
X17326072Y-13067476D01*
X17326072Y-13067476D02*
X17240357Y-13267476D01*
X17383214Y-13067476D02*
X17516548Y-13067476D01*
X17516548Y-13067476D02*
X17430833Y-13267476D01*
X17583214Y-13067476D02*
X17583214Y-13105571D01*
X17659405Y-13067476D02*
X17659405Y-13105571D01*
X17922262Y-13343667D02*
X17912738Y-13334143D01*
X17912738Y-13334143D02*
X17893691Y-13305571D01*
X17893691Y-13305571D02*
X17884167Y-13286524D01*
X17884167Y-13286524D02*
X17874643Y-13257952D01*
X17874643Y-13257952D02*
X17865119Y-13210333D01*
X17865119Y-13210333D02*
X17865119Y-13172238D01*
X17865119Y-13172238D02*
X17874643Y-13124619D01*
X17874643Y-13124619D02*
X17884167Y-13096048D01*
X17884167Y-13096048D02*
X17893691Y-13077000D01*
X17893691Y-13077000D02*
X17912738Y-13048428D01*
X17912738Y-13048428D02*
X17922262Y-13038905D01*
X17988929Y-13086524D02*
X17998453Y-13077000D01*
X17998453Y-13077000D02*
X18017500Y-13067476D01*
X18017500Y-13067476D02*
X18065119Y-13067476D01*
X18065119Y-13067476D02*
X18084167Y-13077000D01*
X18084167Y-13077000D02*
X18093691Y-13086524D01*
X18093691Y-13086524D02*
X18103214Y-13105571D01*
X18103214Y-13105571D02*
X18103214Y-13124619D01*
X18103214Y-13124619D02*
X18093691Y-13153190D01*
X18093691Y-13153190D02*
X17979405Y-13267476D01*
X17979405Y-13267476D02*
X18103214Y-13267476D01*
X18308929Y-13267476D02*
X18308929Y-13067476D01*
X18394643Y-13267476D02*
X18394643Y-13162714D01*
X18394643Y-13162714D02*
X18385119Y-13143667D01*
X18385119Y-13143667D02*
X18366072Y-13134143D01*
X18366072Y-13134143D02*
X18337500Y-13134143D01*
X18337500Y-13134143D02*
X18318453Y-13143667D01*
X18318453Y-13143667D02*
X18308929Y-13153190D01*
X18518453Y-13267476D02*
X18499405Y-13257952D01*
X18499405Y-13257952D02*
X18489881Y-13248428D01*
X18489881Y-13248428D02*
X18480357Y-13229381D01*
X18480357Y-13229381D02*
X18480357Y-13172238D01*
X18480357Y-13172238D02*
X18489881Y-13153190D01*
X18489881Y-13153190D02*
X18499405Y-13143667D01*
X18499405Y-13143667D02*
X18518453Y-13134143D01*
X18518453Y-13134143D02*
X18547024Y-13134143D01*
X18547024Y-13134143D02*
X18566072Y-13143667D01*
X18566072Y-13143667D02*
X18575595Y-13153190D01*
X18575595Y-13153190D02*
X18585119Y-13172238D01*
X18585119Y-13172238D02*
X18585119Y-13229381D01*
X18585119Y-13229381D02*
X18575595Y-13248428D01*
X18575595Y-13248428D02*
X18566072Y-13257952D01*
X18566072Y-13257952D02*
X18547024Y-13267476D01*
X18547024Y-13267476D02*
X18518453Y-13267476D01*
X18699405Y-13267476D02*
X18680357Y-13257952D01*
X18680357Y-13257952D02*
X18670834Y-13238905D01*
X18670834Y-13238905D02*
X18670834Y-13067476D01*
X18851786Y-13257952D02*
X18832738Y-13267476D01*
X18832738Y-13267476D02*
X18794643Y-13267476D01*
X18794643Y-13267476D02*
X18775595Y-13257952D01*
X18775595Y-13257952D02*
X18766072Y-13238905D01*
X18766072Y-13238905D02*
X18766072Y-13162714D01*
X18766072Y-13162714D02*
X18775595Y-13143667D01*
X18775595Y-13143667D02*
X18794643Y-13134143D01*
X18794643Y-13134143D02*
X18832738Y-13134143D01*
X18832738Y-13134143D02*
X18851786Y-13143667D01*
X18851786Y-13143667D02*
X18861310Y-13162714D01*
X18861310Y-13162714D02*
X18861310Y-13181762D01*
X18861310Y-13181762D02*
X18766072Y-13200809D01*
X18937500Y-13257952D02*
X18956548Y-13267476D01*
X18956548Y-13267476D02*
X18994643Y-13267476D01*
X18994643Y-13267476D02*
X19013691Y-13257952D01*
X19013691Y-13257952D02*
X19023215Y-13238905D01*
X19023215Y-13238905D02*
X19023215Y-13229381D01*
X19023215Y-13229381D02*
X19013691Y-13210333D01*
X19013691Y-13210333D02*
X18994643Y-13200809D01*
X18994643Y-13200809D02*
X18966072Y-13200809D01*
X18966072Y-13200809D02*
X18947024Y-13191286D01*
X18947024Y-13191286D02*
X18937500Y-13172238D01*
X18937500Y-13172238D02*
X18937500Y-13162714D01*
X18937500Y-13162714D02*
X18947024Y-13143667D01*
X18947024Y-13143667D02*
X18966072Y-13134143D01*
X18966072Y-13134143D02*
X18994643Y-13134143D01*
X18994643Y-13134143D02*
X19013691Y-13143667D01*
X19089881Y-13343667D02*
X19099405Y-13334143D01*
X19099405Y-13334143D02*
X19118453Y-13305571D01*
X19118453Y-13305571D02*
X19127976Y-13286524D01*
X19127976Y-13286524D02*
X19137500Y-13257952D01*
X19137500Y-13257952D02*
X19147024Y-13210333D01*
X19147024Y-13210333D02*
X19147024Y-13172238D01*
X19147024Y-13172238D02*
X19137500Y-13124619D01*
X19137500Y-13124619D02*
X19127976Y-13096048D01*
X19127976Y-13096048D02*
X19118453Y-13077000D01*
X19118453Y-13077000D02*
X19099405Y-13048428D01*
X19099405Y-13048428D02*
X19089881Y-13038905D01*
D14*
X14427500Y-13428000D02*
X14427500Y-13488000D01*
X14397500Y-13458000D02*
X14457500Y-13458000D01*
D11*
X14743214Y-13331476D02*
X14762262Y-13331476D01*
X14762262Y-13331476D02*
X14781309Y-13341000D01*
X14781309Y-13341000D02*
X14790833Y-13350524D01*
X14790833Y-13350524D02*
X14800357Y-13369571D01*
X14800357Y-13369571D02*
X14809881Y-13407667D01*
X14809881Y-13407667D02*
X14809881Y-13455286D01*
X14809881Y-13455286D02*
X14800357Y-13493381D01*
X14800357Y-13493381D02*
X14790833Y-13512428D01*
X14790833Y-13512428D02*
X14781309Y-13521952D01*
X14781309Y-13521952D02*
X14762262Y-13531476D01*
X14762262Y-13531476D02*
X14743214Y-13531476D01*
X14743214Y-13531476D02*
X14724167Y-13521952D01*
X14724167Y-13521952D02*
X14714643Y-13512428D01*
X14714643Y-13512428D02*
X14705119Y-13493381D01*
X14705119Y-13493381D02*
X14695595Y-13455286D01*
X14695595Y-13455286D02*
X14695595Y-13407667D01*
X14695595Y-13407667D02*
X14705119Y-13369571D01*
X14705119Y-13369571D02*
X14714643Y-13350524D01*
X14714643Y-13350524D02*
X14724167Y-13341000D01*
X14724167Y-13341000D02*
X14743214Y-13331476D01*
X14895595Y-13512428D02*
X14905119Y-13521952D01*
X14905119Y-13521952D02*
X14895595Y-13531476D01*
X14895595Y-13531476D02*
X14886071Y-13521952D01*
X14886071Y-13521952D02*
X14895595Y-13512428D01*
X14895595Y-13512428D02*
X14895595Y-13531476D01*
X15076548Y-13331476D02*
X15038452Y-13331476D01*
X15038452Y-13331476D02*
X15019405Y-13341000D01*
X15019405Y-13341000D02*
X15009881Y-13350524D01*
X15009881Y-13350524D02*
X14990833Y-13379095D01*
X14990833Y-13379095D02*
X14981309Y-13417190D01*
X14981309Y-13417190D02*
X14981309Y-13493381D01*
X14981309Y-13493381D02*
X14990833Y-13512428D01*
X14990833Y-13512428D02*
X15000357Y-13521952D01*
X15000357Y-13521952D02*
X15019405Y-13531476D01*
X15019405Y-13531476D02*
X15057500Y-13531476D01*
X15057500Y-13531476D02*
X15076548Y-13521952D01*
X15076548Y-13521952D02*
X15086071Y-13512428D01*
X15086071Y-13512428D02*
X15095595Y-13493381D01*
X15095595Y-13493381D02*
X15095595Y-13445762D01*
X15095595Y-13445762D02*
X15086071Y-13426714D01*
X15086071Y-13426714D02*
X15076548Y-13417190D01*
X15076548Y-13417190D02*
X15057500Y-13407667D01*
X15057500Y-13407667D02*
X15019405Y-13407667D01*
X15019405Y-13407667D02*
X15000357Y-13417190D01*
X15000357Y-13417190D02*
X14990833Y-13426714D01*
X14990833Y-13426714D02*
X14981309Y-13445762D01*
X15219405Y-13331476D02*
X15238452Y-13331476D01*
X15238452Y-13331476D02*
X15257500Y-13341000D01*
X15257500Y-13341000D02*
X15267024Y-13350524D01*
X15267024Y-13350524D02*
X15276548Y-13369571D01*
X15276548Y-13369571D02*
X15286071Y-13407667D01*
X15286071Y-13407667D02*
X15286071Y-13455286D01*
X15286071Y-13455286D02*
X15276548Y-13493381D01*
X15276548Y-13493381D02*
X15267024Y-13512428D01*
X15267024Y-13512428D02*
X15257500Y-13521952D01*
X15257500Y-13521952D02*
X15238452Y-13531476D01*
X15238452Y-13531476D02*
X15219405Y-13531476D01*
X15219405Y-13531476D02*
X15200357Y-13521952D01*
X15200357Y-13521952D02*
X15190833Y-13512428D01*
X15190833Y-13512428D02*
X15181309Y-13493381D01*
X15181309Y-13493381D02*
X15171786Y-13455286D01*
X15171786Y-13455286D02*
X15171786Y-13407667D01*
X15171786Y-13407667D02*
X15181309Y-13369571D01*
X15181309Y-13369571D02*
X15190833Y-13350524D01*
X15190833Y-13350524D02*
X15200357Y-13341000D01*
X15200357Y-13341000D02*
X15219405Y-13331476D01*
X15409881Y-13331476D02*
X15428929Y-13331476D01*
X15428929Y-13331476D02*
X15447976Y-13341000D01*
X15447976Y-13341000D02*
X15457500Y-13350524D01*
X15457500Y-13350524D02*
X15467024Y-13369571D01*
X15467024Y-13369571D02*
X15476548Y-13407667D01*
X15476548Y-13407667D02*
X15476548Y-13455286D01*
X15476548Y-13455286D02*
X15467024Y-13493381D01*
X15467024Y-13493381D02*
X15457500Y-13512428D01*
X15457500Y-13512428D02*
X15447976Y-13521952D01*
X15447976Y-13521952D02*
X15428929Y-13531476D01*
X15428929Y-13531476D02*
X15409881Y-13531476D01*
X15409881Y-13531476D02*
X15390833Y-13521952D01*
X15390833Y-13521952D02*
X15381309Y-13512428D01*
X15381309Y-13512428D02*
X15371786Y-13493381D01*
X15371786Y-13493381D02*
X15362262Y-13455286D01*
X15362262Y-13455286D02*
X15362262Y-13407667D01*
X15362262Y-13407667D02*
X15371786Y-13369571D01*
X15371786Y-13369571D02*
X15381309Y-13350524D01*
X15381309Y-13350524D02*
X15390833Y-13341000D01*
X15390833Y-13341000D02*
X15409881Y-13331476D01*
X15562262Y-13531476D02*
X15562262Y-13398143D01*
X15562262Y-13417190D02*
X15571786Y-13407667D01*
X15571786Y-13407667D02*
X15590833Y-13398143D01*
X15590833Y-13398143D02*
X15619405Y-13398143D01*
X15619405Y-13398143D02*
X15638452Y-13407667D01*
X15638452Y-13407667D02*
X15647976Y-13426714D01*
X15647976Y-13426714D02*
X15647976Y-13531476D01*
X15647976Y-13426714D02*
X15657500Y-13407667D01*
X15657500Y-13407667D02*
X15676548Y-13398143D01*
X15676548Y-13398143D02*
X15705119Y-13398143D01*
X15705119Y-13398143D02*
X15724167Y-13407667D01*
X15724167Y-13407667D02*
X15733690Y-13426714D01*
X15733690Y-13426714D02*
X15733690Y-13531476D01*
X15828929Y-13531476D02*
X15828929Y-13398143D01*
X15828929Y-13417190D02*
X15838452Y-13407667D01*
X15838452Y-13407667D02*
X15857500Y-13398143D01*
X15857500Y-13398143D02*
X15886071Y-13398143D01*
X15886071Y-13398143D02*
X15905119Y-13407667D01*
X15905119Y-13407667D02*
X15914643Y-13426714D01*
X15914643Y-13426714D02*
X15914643Y-13531476D01*
X15914643Y-13426714D02*
X15924167Y-13407667D01*
X15924167Y-13407667D02*
X15943214Y-13398143D01*
X15943214Y-13398143D02*
X15971786Y-13398143D01*
X15971786Y-13398143D02*
X15990833Y-13407667D01*
X15990833Y-13407667D02*
X16000357Y-13426714D01*
X16000357Y-13426714D02*
X16000357Y-13531476D01*
X16358452Y-13321952D02*
X16187024Y-13579095D01*
X16583214Y-13331476D02*
X16602262Y-13331476D01*
X16602262Y-13331476D02*
X16621310Y-13341000D01*
X16621310Y-13341000D02*
X16630833Y-13350524D01*
X16630833Y-13350524D02*
X16640357Y-13369571D01*
X16640357Y-13369571D02*
X16649881Y-13407667D01*
X16649881Y-13407667D02*
X16649881Y-13455286D01*
X16649881Y-13455286D02*
X16640357Y-13493381D01*
X16640357Y-13493381D02*
X16630833Y-13512428D01*
X16630833Y-13512428D02*
X16621310Y-13521952D01*
X16621310Y-13521952D02*
X16602262Y-13531476D01*
X16602262Y-13531476D02*
X16583214Y-13531476D01*
X16583214Y-13531476D02*
X16564167Y-13521952D01*
X16564167Y-13521952D02*
X16554643Y-13512428D01*
X16554643Y-13512428D02*
X16545119Y-13493381D01*
X16545119Y-13493381D02*
X16535595Y-13455286D01*
X16535595Y-13455286D02*
X16535595Y-13407667D01*
X16535595Y-13407667D02*
X16545119Y-13369571D01*
X16545119Y-13369571D02*
X16554643Y-13350524D01*
X16554643Y-13350524D02*
X16564167Y-13341000D01*
X16564167Y-13341000D02*
X16583214Y-13331476D01*
X16735595Y-13512428D02*
X16745119Y-13521952D01*
X16745119Y-13521952D02*
X16735595Y-13531476D01*
X16735595Y-13531476D02*
X16726071Y-13521952D01*
X16726071Y-13521952D02*
X16735595Y-13512428D01*
X16735595Y-13512428D02*
X16735595Y-13531476D01*
X16868929Y-13331476D02*
X16887976Y-13331476D01*
X16887976Y-13331476D02*
X16907024Y-13341000D01*
X16907024Y-13341000D02*
X16916548Y-13350524D01*
X16916548Y-13350524D02*
X16926072Y-13369571D01*
X16926072Y-13369571D02*
X16935595Y-13407667D01*
X16935595Y-13407667D02*
X16935595Y-13455286D01*
X16935595Y-13455286D02*
X16926072Y-13493381D01*
X16926072Y-13493381D02*
X16916548Y-13512428D01*
X16916548Y-13512428D02*
X16907024Y-13521952D01*
X16907024Y-13521952D02*
X16887976Y-13531476D01*
X16887976Y-13531476D02*
X16868929Y-13531476D01*
X16868929Y-13531476D02*
X16849881Y-13521952D01*
X16849881Y-13521952D02*
X16840357Y-13512428D01*
X16840357Y-13512428D02*
X16830833Y-13493381D01*
X16830833Y-13493381D02*
X16821310Y-13455286D01*
X16821310Y-13455286D02*
X16821310Y-13407667D01*
X16821310Y-13407667D02*
X16830833Y-13369571D01*
X16830833Y-13369571D02*
X16840357Y-13350524D01*
X16840357Y-13350524D02*
X16849881Y-13341000D01*
X16849881Y-13341000D02*
X16868929Y-13331476D01*
X17011786Y-13350524D02*
X17021310Y-13341000D01*
X17021310Y-13341000D02*
X17040357Y-13331476D01*
X17040357Y-13331476D02*
X17087976Y-13331476D01*
X17087976Y-13331476D02*
X17107024Y-13341000D01*
X17107024Y-13341000D02*
X17116548Y-13350524D01*
X17116548Y-13350524D02*
X17126072Y-13369571D01*
X17126072Y-13369571D02*
X17126072Y-13388619D01*
X17126072Y-13388619D02*
X17116548Y-13417190D01*
X17116548Y-13417190D02*
X17002262Y-13531476D01*
X17002262Y-13531476D02*
X17126072Y-13531476D01*
X17192738Y-13331476D02*
X17316548Y-13331476D01*
X17316548Y-13331476D02*
X17249881Y-13407667D01*
X17249881Y-13407667D02*
X17278453Y-13407667D01*
X17278453Y-13407667D02*
X17297500Y-13417190D01*
X17297500Y-13417190D02*
X17307024Y-13426714D01*
X17307024Y-13426714D02*
X17316548Y-13445762D01*
X17316548Y-13445762D02*
X17316548Y-13493381D01*
X17316548Y-13493381D02*
X17307024Y-13512428D01*
X17307024Y-13512428D02*
X17297500Y-13521952D01*
X17297500Y-13521952D02*
X17278453Y-13531476D01*
X17278453Y-13531476D02*
X17221310Y-13531476D01*
X17221310Y-13531476D02*
X17202262Y-13521952D01*
X17202262Y-13521952D02*
X17192738Y-13512428D01*
X17487976Y-13331476D02*
X17449881Y-13331476D01*
X17449881Y-13331476D02*
X17430833Y-13341000D01*
X17430833Y-13341000D02*
X17421310Y-13350524D01*
X17421310Y-13350524D02*
X17402262Y-13379095D01*
X17402262Y-13379095D02*
X17392738Y-13417190D01*
X17392738Y-13417190D02*
X17392738Y-13493381D01*
X17392738Y-13493381D02*
X17402262Y-13512428D01*
X17402262Y-13512428D02*
X17411786Y-13521952D01*
X17411786Y-13521952D02*
X17430833Y-13531476D01*
X17430833Y-13531476D02*
X17468929Y-13531476D01*
X17468929Y-13531476D02*
X17487976Y-13521952D01*
X17487976Y-13521952D02*
X17497500Y-13512428D01*
X17497500Y-13512428D02*
X17507024Y-13493381D01*
X17507024Y-13493381D02*
X17507024Y-13445762D01*
X17507024Y-13445762D02*
X17497500Y-13426714D01*
X17497500Y-13426714D02*
X17487976Y-13417190D01*
X17487976Y-13417190D02*
X17468929Y-13407667D01*
X17468929Y-13407667D02*
X17430833Y-13407667D01*
X17430833Y-13407667D02*
X17411786Y-13417190D01*
X17411786Y-13417190D02*
X17402262Y-13426714D01*
X17402262Y-13426714D02*
X17392738Y-13445762D01*
X17583214Y-13331476D02*
X17583214Y-13369571D01*
X17659405Y-13331476D02*
X17659405Y-13369571D01*
X17922262Y-13607667D02*
X17912738Y-13598143D01*
X17912738Y-13598143D02*
X17893691Y-13569571D01*
X17893691Y-13569571D02*
X17884167Y-13550524D01*
X17884167Y-13550524D02*
X17874643Y-13521952D01*
X17874643Y-13521952D02*
X17865119Y-13474333D01*
X17865119Y-13474333D02*
X17865119Y-13436238D01*
X17865119Y-13436238D02*
X17874643Y-13388619D01*
X17874643Y-13388619D02*
X17884167Y-13360048D01*
X17884167Y-13360048D02*
X17893691Y-13341000D01*
X17893691Y-13341000D02*
X17912738Y-13312428D01*
X17912738Y-13312428D02*
X17922262Y-13302905D01*
X18036548Y-13331476D02*
X18055595Y-13331476D01*
X18055595Y-13331476D02*
X18074643Y-13341000D01*
X18074643Y-13341000D02*
X18084167Y-13350524D01*
X18084167Y-13350524D02*
X18093691Y-13369571D01*
X18093691Y-13369571D02*
X18103214Y-13407667D01*
X18103214Y-13407667D02*
X18103214Y-13455286D01*
X18103214Y-13455286D02*
X18093691Y-13493381D01*
X18093691Y-13493381D02*
X18084167Y-13512428D01*
X18084167Y-13512428D02*
X18074643Y-13521952D01*
X18074643Y-13521952D02*
X18055595Y-13531476D01*
X18055595Y-13531476D02*
X18036548Y-13531476D01*
X18036548Y-13531476D02*
X18017500Y-13521952D01*
X18017500Y-13521952D02*
X18007976Y-13512428D01*
X18007976Y-13512428D02*
X17998453Y-13493381D01*
X17998453Y-13493381D02*
X17988929Y-13455286D01*
X17988929Y-13455286D02*
X17988929Y-13407667D01*
X17988929Y-13407667D02*
X17998453Y-13369571D01*
X17998453Y-13369571D02*
X18007976Y-13350524D01*
X18007976Y-13350524D02*
X18017500Y-13341000D01*
X18017500Y-13341000D02*
X18036548Y-13331476D01*
X18308929Y-13531476D02*
X18308929Y-13331476D01*
X18394643Y-13531476D02*
X18394643Y-13426714D01*
X18394643Y-13426714D02*
X18385119Y-13407667D01*
X18385119Y-13407667D02*
X18366072Y-13398143D01*
X18366072Y-13398143D02*
X18337500Y-13398143D01*
X18337500Y-13398143D02*
X18318453Y-13407667D01*
X18318453Y-13407667D02*
X18308929Y-13417190D01*
X18518453Y-13531476D02*
X18499405Y-13521952D01*
X18499405Y-13521952D02*
X18489881Y-13512428D01*
X18489881Y-13512428D02*
X18480357Y-13493381D01*
X18480357Y-13493381D02*
X18480357Y-13436238D01*
X18480357Y-13436238D02*
X18489881Y-13417190D01*
X18489881Y-13417190D02*
X18499405Y-13407667D01*
X18499405Y-13407667D02*
X18518453Y-13398143D01*
X18518453Y-13398143D02*
X18547024Y-13398143D01*
X18547024Y-13398143D02*
X18566072Y-13407667D01*
X18566072Y-13407667D02*
X18575595Y-13417190D01*
X18575595Y-13417190D02*
X18585119Y-13436238D01*
X18585119Y-13436238D02*
X18585119Y-13493381D01*
X18585119Y-13493381D02*
X18575595Y-13512428D01*
X18575595Y-13512428D02*
X18566072Y-13521952D01*
X18566072Y-13521952D02*
X18547024Y-13531476D01*
X18547024Y-13531476D02*
X18518453Y-13531476D01*
X18699405Y-13531476D02*
X18680357Y-13521952D01*
X18680357Y-13521952D02*
X18670834Y-13502905D01*
X18670834Y-13502905D02*
X18670834Y-13331476D01*
X18851786Y-13521952D02*
X18832738Y-13531476D01*
X18832738Y-13531476D02*
X18794643Y-13531476D01*
X18794643Y-13531476D02*
X18775595Y-13521952D01*
X18775595Y-13521952D02*
X18766072Y-13502905D01*
X18766072Y-13502905D02*
X18766072Y-13426714D01*
X18766072Y-13426714D02*
X18775595Y-13407667D01*
X18775595Y-13407667D02*
X18794643Y-13398143D01*
X18794643Y-13398143D02*
X18832738Y-13398143D01*
X18832738Y-13398143D02*
X18851786Y-13407667D01*
X18851786Y-13407667D02*
X18861310Y-13426714D01*
X18861310Y-13426714D02*
X18861310Y-13445762D01*
X18861310Y-13445762D02*
X18766072Y-13464809D01*
X18937500Y-13521952D02*
X18956548Y-13531476D01*
X18956548Y-13531476D02*
X18994643Y-13531476D01*
X18994643Y-13531476D02*
X19013691Y-13521952D01*
X19013691Y-13521952D02*
X19023215Y-13502905D01*
X19023215Y-13502905D02*
X19023215Y-13493381D01*
X19023215Y-13493381D02*
X19013691Y-13474333D01*
X19013691Y-13474333D02*
X18994643Y-13464809D01*
X18994643Y-13464809D02*
X18966072Y-13464809D01*
X18966072Y-13464809D02*
X18947024Y-13455286D01*
X18947024Y-13455286D02*
X18937500Y-13436238D01*
X18937500Y-13436238D02*
X18937500Y-13426714D01*
X18937500Y-13426714D02*
X18947024Y-13407667D01*
X18947024Y-13407667D02*
X18966072Y-13398143D01*
X18966072Y-13398143D02*
X18994643Y-13398143D01*
X18994643Y-13398143D02*
X19013691Y-13407667D01*
X19228929Y-13455286D02*
X19381310Y-13455286D01*
X19305119Y-13531476D02*
X19305119Y-13379095D01*
X19682262Y-13398143D02*
X19682262Y-13531476D01*
X19634643Y-13321952D02*
X19587024Y-13464809D01*
X19587024Y-13464809D02*
X19710834Y-13464809D01*
X19897500Y-13521952D02*
X19916548Y-13531476D01*
X19916548Y-13531476D02*
X19954643Y-13531476D01*
X19954643Y-13531476D02*
X19973691Y-13521952D01*
X19973691Y-13521952D02*
X19983215Y-13502905D01*
X19983215Y-13502905D02*
X19983215Y-13493381D01*
X19983215Y-13493381D02*
X19973691Y-13474333D01*
X19973691Y-13474333D02*
X19954643Y-13464809D01*
X19954643Y-13464809D02*
X19926072Y-13464809D01*
X19926072Y-13464809D02*
X19907024Y-13455286D01*
X19907024Y-13455286D02*
X19897500Y-13436238D01*
X19897500Y-13436238D02*
X19897500Y-13426714D01*
X19897500Y-13426714D02*
X19907024Y-13407667D01*
X19907024Y-13407667D02*
X19926072Y-13398143D01*
X19926072Y-13398143D02*
X19954643Y-13398143D01*
X19954643Y-13398143D02*
X19973691Y-13407667D01*
X20097500Y-13531476D02*
X20078453Y-13521952D01*
X20078453Y-13521952D02*
X20068929Y-13502905D01*
X20068929Y-13502905D02*
X20068929Y-13331476D01*
X20202262Y-13531476D02*
X20183215Y-13521952D01*
X20183215Y-13521952D02*
X20173691Y-13512428D01*
X20173691Y-13512428D02*
X20164167Y-13493381D01*
X20164167Y-13493381D02*
X20164167Y-13436238D01*
X20164167Y-13436238D02*
X20173691Y-13417190D01*
X20173691Y-13417190D02*
X20183215Y-13407667D01*
X20183215Y-13407667D02*
X20202262Y-13398143D01*
X20202262Y-13398143D02*
X20230834Y-13398143D01*
X20230834Y-13398143D02*
X20249881Y-13407667D01*
X20249881Y-13407667D02*
X20259405Y-13417190D01*
X20259405Y-13417190D02*
X20268929Y-13436238D01*
X20268929Y-13436238D02*
X20268929Y-13493381D01*
X20268929Y-13493381D02*
X20259405Y-13512428D01*
X20259405Y-13512428D02*
X20249881Y-13521952D01*
X20249881Y-13521952D02*
X20230834Y-13531476D01*
X20230834Y-13531476D02*
X20202262Y-13531476D01*
X20326072Y-13398143D02*
X20402262Y-13398143D01*
X20354643Y-13331476D02*
X20354643Y-13502905D01*
X20354643Y-13502905D02*
X20364167Y-13521952D01*
X20364167Y-13521952D02*
X20383215Y-13531476D01*
X20383215Y-13531476D02*
X20402262Y-13531476D01*
X20459405Y-13521952D02*
X20478453Y-13531476D01*
X20478453Y-13531476D02*
X20516548Y-13531476D01*
X20516548Y-13531476D02*
X20535596Y-13521952D01*
X20535596Y-13521952D02*
X20545119Y-13502905D01*
X20545119Y-13502905D02*
X20545119Y-13493381D01*
X20545119Y-13493381D02*
X20535596Y-13474333D01*
X20535596Y-13474333D02*
X20516548Y-13464809D01*
X20516548Y-13464809D02*
X20487976Y-13464809D01*
X20487976Y-13464809D02*
X20468929Y-13455286D01*
X20468929Y-13455286D02*
X20459405Y-13436238D01*
X20459405Y-13436238D02*
X20459405Y-13426714D01*
X20459405Y-13426714D02*
X20468929Y-13407667D01*
X20468929Y-13407667D02*
X20487976Y-13398143D01*
X20487976Y-13398143D02*
X20516548Y-13398143D01*
X20516548Y-13398143D02*
X20535596Y-13407667D01*
X20611786Y-13607667D02*
X20621310Y-13598143D01*
X20621310Y-13598143D02*
X20640357Y-13569571D01*
X20640357Y-13569571D02*
X20649881Y-13550524D01*
X20649881Y-13550524D02*
X20659405Y-13521952D01*
X20659405Y-13521952D02*
X20668929Y-13474333D01*
X20668929Y-13474333D02*
X20668929Y-13436238D01*
X20668929Y-13436238D02*
X20659405Y-13388619D01*
X20659405Y-13388619D02*
X20649881Y-13360048D01*
X20649881Y-13360048D02*
X20640357Y-13341000D01*
X20640357Y-13341000D02*
X20621310Y-13312428D01*
X20621310Y-13312428D02*
X20611786Y-13302905D01*
D15*
X14445199Y-13751699D02*
X14445199Y-13692301D01*
X14385801Y-13692301D01*
X14385801Y-13751699D01*
X14445199Y-13751699D01*
D11*
X14743214Y-13595476D02*
X14762262Y-13595476D01*
X14762262Y-13595476D02*
X14781309Y-13605000D01*
X14781309Y-13605000D02*
X14790833Y-13614524D01*
X14790833Y-13614524D02*
X14800357Y-13633571D01*
X14800357Y-13633571D02*
X14809881Y-13671667D01*
X14809881Y-13671667D02*
X14809881Y-13719286D01*
X14809881Y-13719286D02*
X14800357Y-13757381D01*
X14800357Y-13757381D02*
X14790833Y-13776428D01*
X14790833Y-13776428D02*
X14781309Y-13785952D01*
X14781309Y-13785952D02*
X14762262Y-13795476D01*
X14762262Y-13795476D02*
X14743214Y-13795476D01*
X14743214Y-13795476D02*
X14724167Y-13785952D01*
X14724167Y-13785952D02*
X14714643Y-13776428D01*
X14714643Y-13776428D02*
X14705119Y-13757381D01*
X14705119Y-13757381D02*
X14695595Y-13719286D01*
X14695595Y-13719286D02*
X14695595Y-13671667D01*
X14695595Y-13671667D02*
X14705119Y-13633571D01*
X14705119Y-13633571D02*
X14714643Y-13614524D01*
X14714643Y-13614524D02*
X14724167Y-13605000D01*
X14724167Y-13605000D02*
X14743214Y-13595476D01*
X14895595Y-13776428D02*
X14905119Y-13785952D01*
X14905119Y-13785952D02*
X14895595Y-13795476D01*
X14895595Y-13795476D02*
X14886071Y-13785952D01*
X14886071Y-13785952D02*
X14895595Y-13776428D01*
X14895595Y-13776428D02*
X14895595Y-13795476D01*
X15019405Y-13681190D02*
X15000357Y-13671667D01*
X15000357Y-13671667D02*
X14990833Y-13662143D01*
X14990833Y-13662143D02*
X14981309Y-13643095D01*
X14981309Y-13643095D02*
X14981309Y-13633571D01*
X14981309Y-13633571D02*
X14990833Y-13614524D01*
X14990833Y-13614524D02*
X15000357Y-13605000D01*
X15000357Y-13605000D02*
X15019405Y-13595476D01*
X15019405Y-13595476D02*
X15057500Y-13595476D01*
X15057500Y-13595476D02*
X15076548Y-13605000D01*
X15076548Y-13605000D02*
X15086071Y-13614524D01*
X15086071Y-13614524D02*
X15095595Y-13633571D01*
X15095595Y-13633571D02*
X15095595Y-13643095D01*
X15095595Y-13643095D02*
X15086071Y-13662143D01*
X15086071Y-13662143D02*
X15076548Y-13671667D01*
X15076548Y-13671667D02*
X15057500Y-13681190D01*
X15057500Y-13681190D02*
X15019405Y-13681190D01*
X15019405Y-13681190D02*
X15000357Y-13690714D01*
X15000357Y-13690714D02*
X14990833Y-13700238D01*
X14990833Y-13700238D02*
X14981309Y-13719286D01*
X14981309Y-13719286D02*
X14981309Y-13757381D01*
X14981309Y-13757381D02*
X14990833Y-13776428D01*
X14990833Y-13776428D02*
X15000357Y-13785952D01*
X15000357Y-13785952D02*
X15019405Y-13795476D01*
X15019405Y-13795476D02*
X15057500Y-13795476D01*
X15057500Y-13795476D02*
X15076548Y-13785952D01*
X15076548Y-13785952D02*
X15086071Y-13776428D01*
X15086071Y-13776428D02*
X15095595Y-13757381D01*
X15095595Y-13757381D02*
X15095595Y-13719286D01*
X15095595Y-13719286D02*
X15086071Y-13700238D01*
X15086071Y-13700238D02*
X15076548Y-13690714D01*
X15076548Y-13690714D02*
X15057500Y-13681190D01*
X15267024Y-13662143D02*
X15267024Y-13795476D01*
X15219405Y-13585952D02*
X15171786Y-13728809D01*
X15171786Y-13728809D02*
X15295595Y-13728809D01*
X15409881Y-13595476D02*
X15428929Y-13595476D01*
X15428929Y-13595476D02*
X15447976Y-13605000D01*
X15447976Y-13605000D02*
X15457500Y-13614524D01*
X15457500Y-13614524D02*
X15467024Y-13633571D01*
X15467024Y-13633571D02*
X15476548Y-13671667D01*
X15476548Y-13671667D02*
X15476548Y-13719286D01*
X15476548Y-13719286D02*
X15467024Y-13757381D01*
X15467024Y-13757381D02*
X15457500Y-13776428D01*
X15457500Y-13776428D02*
X15447976Y-13785952D01*
X15447976Y-13785952D02*
X15428929Y-13795476D01*
X15428929Y-13795476D02*
X15409881Y-13795476D01*
X15409881Y-13795476D02*
X15390833Y-13785952D01*
X15390833Y-13785952D02*
X15381309Y-13776428D01*
X15381309Y-13776428D02*
X15371786Y-13757381D01*
X15371786Y-13757381D02*
X15362262Y-13719286D01*
X15362262Y-13719286D02*
X15362262Y-13671667D01*
X15362262Y-13671667D02*
X15371786Y-13633571D01*
X15371786Y-13633571D02*
X15381309Y-13614524D01*
X15381309Y-13614524D02*
X15390833Y-13605000D01*
X15390833Y-13605000D02*
X15409881Y-13595476D01*
X15562262Y-13795476D02*
X15562262Y-13662143D01*
X15562262Y-13681190D02*
X15571786Y-13671667D01*
X15571786Y-13671667D02*
X15590833Y-13662143D01*
X15590833Y-13662143D02*
X15619405Y-13662143D01*
X15619405Y-13662143D02*
X15638452Y-13671667D01*
X15638452Y-13671667D02*
X15647976Y-13690714D01*
X15647976Y-13690714D02*
X15647976Y-13795476D01*
X15647976Y-13690714D02*
X15657500Y-13671667D01*
X15657500Y-13671667D02*
X15676548Y-13662143D01*
X15676548Y-13662143D02*
X15705119Y-13662143D01*
X15705119Y-13662143D02*
X15724167Y-13671667D01*
X15724167Y-13671667D02*
X15733690Y-13690714D01*
X15733690Y-13690714D02*
X15733690Y-13795476D01*
X15828929Y-13795476D02*
X15828929Y-13662143D01*
X15828929Y-13681190D02*
X15838452Y-13671667D01*
X15838452Y-13671667D02*
X15857500Y-13662143D01*
X15857500Y-13662143D02*
X15886071Y-13662143D01*
X15886071Y-13662143D02*
X15905119Y-13671667D01*
X15905119Y-13671667D02*
X15914643Y-13690714D01*
X15914643Y-13690714D02*
X15914643Y-13795476D01*
X15914643Y-13690714D02*
X15924167Y-13671667D01*
X15924167Y-13671667D02*
X15943214Y-13662143D01*
X15943214Y-13662143D02*
X15971786Y-13662143D01*
X15971786Y-13662143D02*
X15990833Y-13671667D01*
X15990833Y-13671667D02*
X16000357Y-13690714D01*
X16000357Y-13690714D02*
X16000357Y-13795476D01*
X16358452Y-13585952D02*
X16187024Y-13843095D01*
X16583214Y-13595476D02*
X16602262Y-13595476D01*
X16602262Y-13595476D02*
X16621310Y-13605000D01*
X16621310Y-13605000D02*
X16630833Y-13614524D01*
X16630833Y-13614524D02*
X16640357Y-13633571D01*
X16640357Y-13633571D02*
X16649881Y-13671667D01*
X16649881Y-13671667D02*
X16649881Y-13719286D01*
X16649881Y-13719286D02*
X16640357Y-13757381D01*
X16640357Y-13757381D02*
X16630833Y-13776428D01*
X16630833Y-13776428D02*
X16621310Y-13785952D01*
X16621310Y-13785952D02*
X16602262Y-13795476D01*
X16602262Y-13795476D02*
X16583214Y-13795476D01*
X16583214Y-13795476D02*
X16564167Y-13785952D01*
X16564167Y-13785952D02*
X16554643Y-13776428D01*
X16554643Y-13776428D02*
X16545119Y-13757381D01*
X16545119Y-13757381D02*
X16535595Y-13719286D01*
X16535595Y-13719286D02*
X16535595Y-13671667D01*
X16535595Y-13671667D02*
X16545119Y-13633571D01*
X16545119Y-13633571D02*
X16554643Y-13614524D01*
X16554643Y-13614524D02*
X16564167Y-13605000D01*
X16564167Y-13605000D02*
X16583214Y-13595476D01*
X16735595Y-13776428D02*
X16745119Y-13785952D01*
X16745119Y-13785952D02*
X16735595Y-13795476D01*
X16735595Y-13795476D02*
X16726071Y-13785952D01*
X16726071Y-13785952D02*
X16735595Y-13776428D01*
X16735595Y-13776428D02*
X16735595Y-13795476D01*
X16868929Y-13595476D02*
X16887976Y-13595476D01*
X16887976Y-13595476D02*
X16907024Y-13605000D01*
X16907024Y-13605000D02*
X16916548Y-13614524D01*
X16916548Y-13614524D02*
X16926072Y-13633571D01*
X16926072Y-13633571D02*
X16935595Y-13671667D01*
X16935595Y-13671667D02*
X16935595Y-13719286D01*
X16935595Y-13719286D02*
X16926072Y-13757381D01*
X16926072Y-13757381D02*
X16916548Y-13776428D01*
X16916548Y-13776428D02*
X16907024Y-13785952D01*
X16907024Y-13785952D02*
X16887976Y-13795476D01*
X16887976Y-13795476D02*
X16868929Y-13795476D01*
X16868929Y-13795476D02*
X16849881Y-13785952D01*
X16849881Y-13785952D02*
X16840357Y-13776428D01*
X16840357Y-13776428D02*
X16830833Y-13757381D01*
X16830833Y-13757381D02*
X16821310Y-13719286D01*
X16821310Y-13719286D02*
X16821310Y-13671667D01*
X16821310Y-13671667D02*
X16830833Y-13633571D01*
X16830833Y-13633571D02*
X16840357Y-13614524D01*
X16840357Y-13614524D02*
X16849881Y-13605000D01*
X16849881Y-13605000D02*
X16868929Y-13595476D01*
X17002262Y-13595476D02*
X17126072Y-13595476D01*
X17126072Y-13595476D02*
X17059405Y-13671667D01*
X17059405Y-13671667D02*
X17087976Y-13671667D01*
X17087976Y-13671667D02*
X17107024Y-13681190D01*
X17107024Y-13681190D02*
X17116548Y-13690714D01*
X17116548Y-13690714D02*
X17126072Y-13709762D01*
X17126072Y-13709762D02*
X17126072Y-13757381D01*
X17126072Y-13757381D02*
X17116548Y-13776428D01*
X17116548Y-13776428D02*
X17107024Y-13785952D01*
X17107024Y-13785952D02*
X17087976Y-13795476D01*
X17087976Y-13795476D02*
X17030833Y-13795476D01*
X17030833Y-13795476D02*
X17011786Y-13785952D01*
X17011786Y-13785952D02*
X17002262Y-13776428D01*
X17192738Y-13595476D02*
X17316548Y-13595476D01*
X17316548Y-13595476D02*
X17249881Y-13671667D01*
X17249881Y-13671667D02*
X17278453Y-13671667D01*
X17278453Y-13671667D02*
X17297500Y-13681190D01*
X17297500Y-13681190D02*
X17307024Y-13690714D01*
X17307024Y-13690714D02*
X17316548Y-13709762D01*
X17316548Y-13709762D02*
X17316548Y-13757381D01*
X17316548Y-13757381D02*
X17307024Y-13776428D01*
X17307024Y-13776428D02*
X17297500Y-13785952D01*
X17297500Y-13785952D02*
X17278453Y-13795476D01*
X17278453Y-13795476D02*
X17221310Y-13795476D01*
X17221310Y-13795476D02*
X17202262Y-13785952D01*
X17202262Y-13785952D02*
X17192738Y-13776428D01*
X17507024Y-13795476D02*
X17392738Y-13795476D01*
X17449881Y-13795476D02*
X17449881Y-13595476D01*
X17449881Y-13595476D02*
X17430833Y-13624048D01*
X17430833Y-13624048D02*
X17411786Y-13643095D01*
X17411786Y-13643095D02*
X17392738Y-13652619D01*
X17583214Y-13595476D02*
X17583214Y-13633571D01*
X17659405Y-13595476D02*
X17659405Y-13633571D01*
X17922262Y-13871667D02*
X17912738Y-13862143D01*
X17912738Y-13862143D02*
X17893691Y-13833571D01*
X17893691Y-13833571D02*
X17884167Y-13814524D01*
X17884167Y-13814524D02*
X17874643Y-13785952D01*
X17874643Y-13785952D02*
X17865119Y-13738333D01*
X17865119Y-13738333D02*
X17865119Y-13700238D01*
X17865119Y-13700238D02*
X17874643Y-13652619D01*
X17874643Y-13652619D02*
X17884167Y-13624048D01*
X17884167Y-13624048D02*
X17893691Y-13605000D01*
X17893691Y-13605000D02*
X17912738Y-13576428D01*
X17912738Y-13576428D02*
X17922262Y-13566905D01*
X17979405Y-13595476D02*
X18103214Y-13595476D01*
X18103214Y-13595476D02*
X18036548Y-13671667D01*
X18036548Y-13671667D02*
X18065119Y-13671667D01*
X18065119Y-13671667D02*
X18084167Y-13681190D01*
X18084167Y-13681190D02*
X18093691Y-13690714D01*
X18093691Y-13690714D02*
X18103214Y-13709762D01*
X18103214Y-13709762D02*
X18103214Y-13757381D01*
X18103214Y-13757381D02*
X18093691Y-13776428D01*
X18093691Y-13776428D02*
X18084167Y-13785952D01*
X18084167Y-13785952D02*
X18065119Y-13795476D01*
X18065119Y-13795476D02*
X18007976Y-13795476D01*
X18007976Y-13795476D02*
X17988929Y-13785952D01*
X17988929Y-13785952D02*
X17979405Y-13776428D01*
X18284167Y-13595476D02*
X18188929Y-13595476D01*
X18188929Y-13595476D02*
X18179405Y-13690714D01*
X18179405Y-13690714D02*
X18188929Y-13681190D01*
X18188929Y-13681190D02*
X18207976Y-13671667D01*
X18207976Y-13671667D02*
X18255595Y-13671667D01*
X18255595Y-13671667D02*
X18274643Y-13681190D01*
X18274643Y-13681190D02*
X18284167Y-13690714D01*
X18284167Y-13690714D02*
X18293691Y-13709762D01*
X18293691Y-13709762D02*
X18293691Y-13757381D01*
X18293691Y-13757381D02*
X18284167Y-13776428D01*
X18284167Y-13776428D02*
X18274643Y-13785952D01*
X18274643Y-13785952D02*
X18255595Y-13795476D01*
X18255595Y-13795476D02*
X18207976Y-13795476D01*
X18207976Y-13795476D02*
X18188929Y-13785952D01*
X18188929Y-13785952D02*
X18179405Y-13776428D01*
X18499405Y-13795476D02*
X18499405Y-13595476D01*
X18585119Y-13795476D02*
X18585119Y-13690714D01*
X18585119Y-13690714D02*
X18575595Y-13671667D01*
X18575595Y-13671667D02*
X18556548Y-13662143D01*
X18556548Y-13662143D02*
X18527976Y-13662143D01*
X18527976Y-13662143D02*
X18508929Y-13671667D01*
X18508929Y-13671667D02*
X18499405Y-13681190D01*
X18708929Y-13795476D02*
X18689881Y-13785952D01*
X18689881Y-13785952D02*
X18680357Y-13776428D01*
X18680357Y-13776428D02*
X18670834Y-13757381D01*
X18670834Y-13757381D02*
X18670834Y-13700238D01*
X18670834Y-13700238D02*
X18680357Y-13681190D01*
X18680357Y-13681190D02*
X18689881Y-13671667D01*
X18689881Y-13671667D02*
X18708929Y-13662143D01*
X18708929Y-13662143D02*
X18737500Y-13662143D01*
X18737500Y-13662143D02*
X18756548Y-13671667D01*
X18756548Y-13671667D02*
X18766072Y-13681190D01*
X18766072Y-13681190D02*
X18775595Y-13700238D01*
X18775595Y-13700238D02*
X18775595Y-13757381D01*
X18775595Y-13757381D02*
X18766072Y-13776428D01*
X18766072Y-13776428D02*
X18756548Y-13785952D01*
X18756548Y-13785952D02*
X18737500Y-13795476D01*
X18737500Y-13795476D02*
X18708929Y-13795476D01*
X18889881Y-13795476D02*
X18870834Y-13785952D01*
X18870834Y-13785952D02*
X18861310Y-13766905D01*
X18861310Y-13766905D02*
X18861310Y-13595476D01*
X19042262Y-13785952D02*
X19023215Y-13795476D01*
X19023215Y-13795476D02*
X18985119Y-13795476D01*
X18985119Y-13795476D02*
X18966072Y-13785952D01*
X18966072Y-13785952D02*
X18956548Y-13766905D01*
X18956548Y-13766905D02*
X18956548Y-13690714D01*
X18956548Y-13690714D02*
X18966072Y-13671667D01*
X18966072Y-13671667D02*
X18985119Y-13662143D01*
X18985119Y-13662143D02*
X19023215Y-13662143D01*
X19023215Y-13662143D02*
X19042262Y-13671667D01*
X19042262Y-13671667D02*
X19051786Y-13690714D01*
X19051786Y-13690714D02*
X19051786Y-13709762D01*
X19051786Y-13709762D02*
X18956548Y-13728809D01*
X19127976Y-13785952D02*
X19147024Y-13795476D01*
X19147024Y-13795476D02*
X19185119Y-13795476D01*
X19185119Y-13795476D02*
X19204167Y-13785952D01*
X19204167Y-13785952D02*
X19213691Y-13766905D01*
X19213691Y-13766905D02*
X19213691Y-13757381D01*
X19213691Y-13757381D02*
X19204167Y-13738333D01*
X19204167Y-13738333D02*
X19185119Y-13728809D01*
X19185119Y-13728809D02*
X19156548Y-13728809D01*
X19156548Y-13728809D02*
X19137500Y-13719286D01*
X19137500Y-13719286D02*
X19127976Y-13700238D01*
X19127976Y-13700238D02*
X19127976Y-13690714D01*
X19127976Y-13690714D02*
X19137500Y-13671667D01*
X19137500Y-13671667D02*
X19156548Y-13662143D01*
X19156548Y-13662143D02*
X19185119Y-13662143D01*
X19185119Y-13662143D02*
X19204167Y-13671667D01*
X19280357Y-13871667D02*
X19289881Y-13862143D01*
X19289881Y-13862143D02*
X19308929Y-13833571D01*
X19308929Y-13833571D02*
X19318453Y-13814524D01*
X19318453Y-13814524D02*
X19327976Y-13785952D01*
X19327976Y-13785952D02*
X19337500Y-13738333D01*
X19337500Y-13738333D02*
X19337500Y-13700238D01*
X19337500Y-13700238D02*
X19327976Y-13652619D01*
X19327976Y-13652619D02*
X19318453Y-13624048D01*
X19318453Y-13624048D02*
X19308929Y-13605000D01*
X19308929Y-13605000D02*
X19289881Y-13576428D01*
X19289881Y-13576428D02*
X19280357Y-13566905D01*
D16*
X14425000Y-14018500D02*
X14457500Y-13986000D01*
X14425000Y-13953500D01*
X14392500Y-13986000D01*
X14425000Y-14018500D01*
D11*
X14743214Y-13859476D02*
X14762262Y-13859476D01*
X14762262Y-13859476D02*
X14781309Y-13869000D01*
X14781309Y-13869000D02*
X14790833Y-13878524D01*
X14790833Y-13878524D02*
X14800357Y-13897571D01*
X14800357Y-13897571D02*
X14809881Y-13935667D01*
X14809881Y-13935667D02*
X14809881Y-13983286D01*
X14809881Y-13983286D02*
X14800357Y-14021381D01*
X14800357Y-14021381D02*
X14790833Y-14040428D01*
X14790833Y-14040428D02*
X14781309Y-14049952D01*
X14781309Y-14049952D02*
X14762262Y-14059476D01*
X14762262Y-14059476D02*
X14743214Y-14059476D01*
X14743214Y-14059476D02*
X14724167Y-14049952D01*
X14724167Y-14049952D02*
X14714643Y-14040428D01*
X14714643Y-14040428D02*
X14705119Y-14021381D01*
X14705119Y-14021381D02*
X14695595Y-13983286D01*
X14695595Y-13983286D02*
X14695595Y-13935667D01*
X14695595Y-13935667D02*
X14705119Y-13897571D01*
X14705119Y-13897571D02*
X14714643Y-13878524D01*
X14714643Y-13878524D02*
X14724167Y-13869000D01*
X14724167Y-13869000D02*
X14743214Y-13859476D01*
X14895595Y-14040428D02*
X14905119Y-14049952D01*
X14905119Y-14049952D02*
X14895595Y-14059476D01*
X14895595Y-14059476D02*
X14886071Y-14049952D01*
X14886071Y-14049952D02*
X14895595Y-14040428D01*
X14895595Y-14040428D02*
X14895595Y-14059476D01*
X15076548Y-13859476D02*
X15038452Y-13859476D01*
X15038452Y-13859476D02*
X15019405Y-13869000D01*
X15019405Y-13869000D02*
X15009881Y-13878524D01*
X15009881Y-13878524D02*
X14990833Y-13907095D01*
X14990833Y-13907095D02*
X14981309Y-13945190D01*
X14981309Y-13945190D02*
X14981309Y-14021381D01*
X14981309Y-14021381D02*
X14990833Y-14040428D01*
X14990833Y-14040428D02*
X15000357Y-14049952D01*
X15000357Y-14049952D02*
X15019405Y-14059476D01*
X15019405Y-14059476D02*
X15057500Y-14059476D01*
X15057500Y-14059476D02*
X15076548Y-14049952D01*
X15076548Y-14049952D02*
X15086071Y-14040428D01*
X15086071Y-14040428D02*
X15095595Y-14021381D01*
X15095595Y-14021381D02*
X15095595Y-13973762D01*
X15095595Y-13973762D02*
X15086071Y-13954714D01*
X15086071Y-13954714D02*
X15076548Y-13945190D01*
X15076548Y-13945190D02*
X15057500Y-13935667D01*
X15057500Y-13935667D02*
X15019405Y-13935667D01*
X15019405Y-13935667D02*
X15000357Y-13945190D01*
X15000357Y-13945190D02*
X14990833Y-13954714D01*
X14990833Y-13954714D02*
X14981309Y-13973762D01*
X15276548Y-13859476D02*
X15181309Y-13859476D01*
X15181309Y-13859476D02*
X15171786Y-13954714D01*
X15171786Y-13954714D02*
X15181309Y-13945190D01*
X15181309Y-13945190D02*
X15200357Y-13935667D01*
X15200357Y-13935667D02*
X15247976Y-13935667D01*
X15247976Y-13935667D02*
X15267024Y-13945190D01*
X15267024Y-13945190D02*
X15276548Y-13954714D01*
X15276548Y-13954714D02*
X15286071Y-13973762D01*
X15286071Y-13973762D02*
X15286071Y-14021381D01*
X15286071Y-14021381D02*
X15276548Y-14040428D01*
X15276548Y-14040428D02*
X15267024Y-14049952D01*
X15267024Y-14049952D02*
X15247976Y-14059476D01*
X15247976Y-14059476D02*
X15200357Y-14059476D01*
X15200357Y-14059476D02*
X15181309Y-14049952D01*
X15181309Y-14049952D02*
X15171786Y-14040428D01*
X15409881Y-13859476D02*
X15428929Y-13859476D01*
X15428929Y-13859476D02*
X15447976Y-13869000D01*
X15447976Y-13869000D02*
X15457500Y-13878524D01*
X15457500Y-13878524D02*
X15467024Y-13897571D01*
X15467024Y-13897571D02*
X15476548Y-13935667D01*
X15476548Y-13935667D02*
X15476548Y-13983286D01*
X15476548Y-13983286D02*
X15467024Y-14021381D01*
X15467024Y-14021381D02*
X15457500Y-14040428D01*
X15457500Y-14040428D02*
X15447976Y-14049952D01*
X15447976Y-14049952D02*
X15428929Y-14059476D01*
X15428929Y-14059476D02*
X15409881Y-14059476D01*
X15409881Y-14059476D02*
X15390833Y-14049952D01*
X15390833Y-14049952D02*
X15381309Y-14040428D01*
X15381309Y-14040428D02*
X15371786Y-14021381D01*
X15371786Y-14021381D02*
X15362262Y-13983286D01*
X15362262Y-13983286D02*
X15362262Y-13935667D01*
X15362262Y-13935667D02*
X15371786Y-13897571D01*
X15371786Y-13897571D02*
X15381309Y-13878524D01*
X15381309Y-13878524D02*
X15390833Y-13869000D01*
X15390833Y-13869000D02*
X15409881Y-13859476D01*
X15562262Y-14059476D02*
X15562262Y-13926143D01*
X15562262Y-13945190D02*
X15571786Y-13935667D01*
X15571786Y-13935667D02*
X15590833Y-13926143D01*
X15590833Y-13926143D02*
X15619405Y-13926143D01*
X15619405Y-13926143D02*
X15638452Y-13935667D01*
X15638452Y-13935667D02*
X15647976Y-13954714D01*
X15647976Y-13954714D02*
X15647976Y-14059476D01*
X15647976Y-13954714D02*
X15657500Y-13935667D01*
X15657500Y-13935667D02*
X15676548Y-13926143D01*
X15676548Y-13926143D02*
X15705119Y-13926143D01*
X15705119Y-13926143D02*
X15724167Y-13935667D01*
X15724167Y-13935667D02*
X15733690Y-13954714D01*
X15733690Y-13954714D02*
X15733690Y-14059476D01*
X15828929Y-14059476D02*
X15828929Y-13926143D01*
X15828929Y-13945190D02*
X15838452Y-13935667D01*
X15838452Y-13935667D02*
X15857500Y-13926143D01*
X15857500Y-13926143D02*
X15886071Y-13926143D01*
X15886071Y-13926143D02*
X15905119Y-13935667D01*
X15905119Y-13935667D02*
X15914643Y-13954714D01*
X15914643Y-13954714D02*
X15914643Y-14059476D01*
X15914643Y-13954714D02*
X15924167Y-13935667D01*
X15924167Y-13935667D02*
X15943214Y-13926143D01*
X15943214Y-13926143D02*
X15971786Y-13926143D01*
X15971786Y-13926143D02*
X15990833Y-13935667D01*
X15990833Y-13935667D02*
X16000357Y-13954714D01*
X16000357Y-13954714D02*
X16000357Y-14059476D01*
X16358452Y-13849952D02*
X16187024Y-14107095D01*
X16583214Y-13859476D02*
X16602262Y-13859476D01*
X16602262Y-13859476D02*
X16621310Y-13869000D01*
X16621310Y-13869000D02*
X16630833Y-13878524D01*
X16630833Y-13878524D02*
X16640357Y-13897571D01*
X16640357Y-13897571D02*
X16649881Y-13935667D01*
X16649881Y-13935667D02*
X16649881Y-13983286D01*
X16649881Y-13983286D02*
X16640357Y-14021381D01*
X16640357Y-14021381D02*
X16630833Y-14040428D01*
X16630833Y-14040428D02*
X16621310Y-14049952D01*
X16621310Y-14049952D02*
X16602262Y-14059476D01*
X16602262Y-14059476D02*
X16583214Y-14059476D01*
X16583214Y-14059476D02*
X16564167Y-14049952D01*
X16564167Y-14049952D02*
X16554643Y-14040428D01*
X16554643Y-14040428D02*
X16545119Y-14021381D01*
X16545119Y-14021381D02*
X16535595Y-13983286D01*
X16535595Y-13983286D02*
X16535595Y-13935667D01*
X16535595Y-13935667D02*
X16545119Y-13897571D01*
X16545119Y-13897571D02*
X16554643Y-13878524D01*
X16554643Y-13878524D02*
X16564167Y-13869000D01*
X16564167Y-13869000D02*
X16583214Y-13859476D01*
X16735595Y-14040428D02*
X16745119Y-14049952D01*
X16745119Y-14049952D02*
X16735595Y-14059476D01*
X16735595Y-14059476D02*
X16726071Y-14049952D01*
X16726071Y-14049952D02*
X16735595Y-14040428D01*
X16735595Y-14040428D02*
X16735595Y-14059476D01*
X16868929Y-13859476D02*
X16887976Y-13859476D01*
X16887976Y-13859476D02*
X16907024Y-13869000D01*
X16907024Y-13869000D02*
X16916548Y-13878524D01*
X16916548Y-13878524D02*
X16926072Y-13897571D01*
X16926072Y-13897571D02*
X16935595Y-13935667D01*
X16935595Y-13935667D02*
X16935595Y-13983286D01*
X16935595Y-13983286D02*
X16926072Y-14021381D01*
X16926072Y-14021381D02*
X16916548Y-14040428D01*
X16916548Y-14040428D02*
X16907024Y-14049952D01*
X16907024Y-14049952D02*
X16887976Y-14059476D01*
X16887976Y-14059476D02*
X16868929Y-14059476D01*
X16868929Y-14059476D02*
X16849881Y-14049952D01*
X16849881Y-14049952D02*
X16840357Y-14040428D01*
X16840357Y-14040428D02*
X16830833Y-14021381D01*
X16830833Y-14021381D02*
X16821310Y-13983286D01*
X16821310Y-13983286D02*
X16821310Y-13935667D01*
X16821310Y-13935667D02*
X16830833Y-13897571D01*
X16830833Y-13897571D02*
X16840357Y-13878524D01*
X16840357Y-13878524D02*
X16849881Y-13869000D01*
X16849881Y-13869000D02*
X16868929Y-13859476D01*
X17011786Y-13878524D02*
X17021310Y-13869000D01*
X17021310Y-13869000D02*
X17040357Y-13859476D01*
X17040357Y-13859476D02*
X17087976Y-13859476D01*
X17087976Y-13859476D02*
X17107024Y-13869000D01*
X17107024Y-13869000D02*
X17116548Y-13878524D01*
X17116548Y-13878524D02*
X17126072Y-13897571D01*
X17126072Y-13897571D02*
X17126072Y-13916619D01*
X17126072Y-13916619D02*
X17116548Y-13945190D01*
X17116548Y-13945190D02*
X17002262Y-14059476D01*
X17002262Y-14059476D02*
X17126072Y-14059476D01*
X17307024Y-13859476D02*
X17211786Y-13859476D01*
X17211786Y-13859476D02*
X17202262Y-13954714D01*
X17202262Y-13954714D02*
X17211786Y-13945190D01*
X17211786Y-13945190D02*
X17230833Y-13935667D01*
X17230833Y-13935667D02*
X17278453Y-13935667D01*
X17278453Y-13935667D02*
X17297500Y-13945190D01*
X17297500Y-13945190D02*
X17307024Y-13954714D01*
X17307024Y-13954714D02*
X17316548Y-13973762D01*
X17316548Y-13973762D02*
X17316548Y-14021381D01*
X17316548Y-14021381D02*
X17307024Y-14040428D01*
X17307024Y-14040428D02*
X17297500Y-14049952D01*
X17297500Y-14049952D02*
X17278453Y-14059476D01*
X17278453Y-14059476D02*
X17230833Y-14059476D01*
X17230833Y-14059476D02*
X17211786Y-14049952D01*
X17211786Y-14049952D02*
X17202262Y-14040428D01*
X17487976Y-13859476D02*
X17449881Y-13859476D01*
X17449881Y-13859476D02*
X17430833Y-13869000D01*
X17430833Y-13869000D02*
X17421310Y-13878524D01*
X17421310Y-13878524D02*
X17402262Y-13907095D01*
X17402262Y-13907095D02*
X17392738Y-13945190D01*
X17392738Y-13945190D02*
X17392738Y-14021381D01*
X17392738Y-14021381D02*
X17402262Y-14040428D01*
X17402262Y-14040428D02*
X17411786Y-14049952D01*
X17411786Y-14049952D02*
X17430833Y-14059476D01*
X17430833Y-14059476D02*
X17468929Y-14059476D01*
X17468929Y-14059476D02*
X17487976Y-14049952D01*
X17487976Y-14049952D02*
X17497500Y-14040428D01*
X17497500Y-14040428D02*
X17507024Y-14021381D01*
X17507024Y-14021381D02*
X17507024Y-13973762D01*
X17507024Y-13973762D02*
X17497500Y-13954714D01*
X17497500Y-13954714D02*
X17487976Y-13945190D01*
X17487976Y-13945190D02*
X17468929Y-13935667D01*
X17468929Y-13935667D02*
X17430833Y-13935667D01*
X17430833Y-13935667D02*
X17411786Y-13945190D01*
X17411786Y-13945190D02*
X17402262Y-13954714D01*
X17402262Y-13954714D02*
X17392738Y-13973762D01*
X17583214Y-13859476D02*
X17583214Y-13897571D01*
X17659405Y-13859476D02*
X17659405Y-13897571D01*
X17922262Y-14135667D02*
X17912738Y-14126143D01*
X17912738Y-14126143D02*
X17893691Y-14097571D01*
X17893691Y-14097571D02*
X17884167Y-14078524D01*
X17884167Y-14078524D02*
X17874643Y-14049952D01*
X17874643Y-14049952D02*
X17865119Y-14002333D01*
X17865119Y-14002333D02*
X17865119Y-13964238D01*
X17865119Y-13964238D02*
X17874643Y-13916619D01*
X17874643Y-13916619D02*
X17884167Y-13888048D01*
X17884167Y-13888048D02*
X17893691Y-13869000D01*
X17893691Y-13869000D02*
X17912738Y-13840428D01*
X17912738Y-13840428D02*
X17922262Y-13830905D01*
X17988929Y-13878524D02*
X17998453Y-13869000D01*
X17998453Y-13869000D02*
X18017500Y-13859476D01*
X18017500Y-13859476D02*
X18065119Y-13859476D01*
X18065119Y-13859476D02*
X18084167Y-13869000D01*
X18084167Y-13869000D02*
X18093691Y-13878524D01*
X18093691Y-13878524D02*
X18103214Y-13897571D01*
X18103214Y-13897571D02*
X18103214Y-13916619D01*
X18103214Y-13916619D02*
X18093691Y-13945190D01*
X18093691Y-13945190D02*
X17979405Y-14059476D01*
X17979405Y-14059476D02*
X18103214Y-14059476D01*
X18308929Y-14059476D02*
X18308929Y-13859476D01*
X18394643Y-14059476D02*
X18394643Y-13954714D01*
X18394643Y-13954714D02*
X18385119Y-13935667D01*
X18385119Y-13935667D02*
X18366072Y-13926143D01*
X18366072Y-13926143D02*
X18337500Y-13926143D01*
X18337500Y-13926143D02*
X18318453Y-13935667D01*
X18318453Y-13935667D02*
X18308929Y-13945190D01*
X18518453Y-14059476D02*
X18499405Y-14049952D01*
X18499405Y-14049952D02*
X18489881Y-14040428D01*
X18489881Y-14040428D02*
X18480357Y-14021381D01*
X18480357Y-14021381D02*
X18480357Y-13964238D01*
X18480357Y-13964238D02*
X18489881Y-13945190D01*
X18489881Y-13945190D02*
X18499405Y-13935667D01*
X18499405Y-13935667D02*
X18518453Y-13926143D01*
X18518453Y-13926143D02*
X18547024Y-13926143D01*
X18547024Y-13926143D02*
X18566072Y-13935667D01*
X18566072Y-13935667D02*
X18575595Y-13945190D01*
X18575595Y-13945190D02*
X18585119Y-13964238D01*
X18585119Y-13964238D02*
X18585119Y-14021381D01*
X18585119Y-14021381D02*
X18575595Y-14040428D01*
X18575595Y-14040428D02*
X18566072Y-14049952D01*
X18566072Y-14049952D02*
X18547024Y-14059476D01*
X18547024Y-14059476D02*
X18518453Y-14059476D01*
X18699405Y-14059476D02*
X18680357Y-14049952D01*
X18680357Y-14049952D02*
X18670834Y-14030905D01*
X18670834Y-14030905D02*
X18670834Y-13859476D01*
X18851786Y-14049952D02*
X18832738Y-14059476D01*
X18832738Y-14059476D02*
X18794643Y-14059476D01*
X18794643Y-14059476D02*
X18775595Y-14049952D01*
X18775595Y-14049952D02*
X18766072Y-14030905D01*
X18766072Y-14030905D02*
X18766072Y-13954714D01*
X18766072Y-13954714D02*
X18775595Y-13935667D01*
X18775595Y-13935667D02*
X18794643Y-13926143D01*
X18794643Y-13926143D02*
X18832738Y-13926143D01*
X18832738Y-13926143D02*
X18851786Y-13935667D01*
X18851786Y-13935667D02*
X18861310Y-13954714D01*
X18861310Y-13954714D02*
X18861310Y-13973762D01*
X18861310Y-13973762D02*
X18766072Y-13992809D01*
X18937500Y-14049952D02*
X18956548Y-14059476D01*
X18956548Y-14059476D02*
X18994643Y-14059476D01*
X18994643Y-14059476D02*
X19013691Y-14049952D01*
X19013691Y-14049952D02*
X19023215Y-14030905D01*
X19023215Y-14030905D02*
X19023215Y-14021381D01*
X19023215Y-14021381D02*
X19013691Y-14002333D01*
X19013691Y-14002333D02*
X18994643Y-13992809D01*
X18994643Y-13992809D02*
X18966072Y-13992809D01*
X18966072Y-13992809D02*
X18947024Y-13983286D01*
X18947024Y-13983286D02*
X18937500Y-13964238D01*
X18937500Y-13964238D02*
X18937500Y-13954714D01*
X18937500Y-13954714D02*
X18947024Y-13935667D01*
X18947024Y-13935667D02*
X18966072Y-13926143D01*
X18966072Y-13926143D02*
X18994643Y-13926143D01*
X18994643Y-13926143D02*
X19013691Y-13935667D01*
X19089881Y-14135667D02*
X19099405Y-14126143D01*
X19099405Y-14126143D02*
X19118453Y-14097571D01*
X19118453Y-14097571D02*
X19127976Y-14078524D01*
X19127976Y-14078524D02*
X19137500Y-14049952D01*
X19137500Y-14049952D02*
X19147024Y-14002333D01*
X19147024Y-14002333D02*
X19147024Y-13964238D01*
X19147024Y-13964238D02*
X19137500Y-13916619D01*
X19137500Y-13916619D02*
X19127976Y-13888048D01*
X19127976Y-13888048D02*
X19118453Y-13869000D01*
X19118453Y-13869000D02*
X19099405Y-13840428D01*
X19099405Y-13840428D02*
X19089881Y-13830905D01*
X19419405Y-14135667D02*
X19409881Y-14126143D01*
X19409881Y-14126143D02*
X19390834Y-14097571D01*
X19390834Y-14097571D02*
X19381310Y-14078524D01*
X19381310Y-14078524D02*
X19371786Y-14049952D01*
X19371786Y-14049952D02*
X19362262Y-14002333D01*
X19362262Y-14002333D02*
X19362262Y-13964238D01*
X19362262Y-13964238D02*
X19371786Y-13916619D01*
X19371786Y-13916619D02*
X19381310Y-13888048D01*
X19381310Y-13888048D02*
X19390834Y-13869000D01*
X19390834Y-13869000D02*
X19409881Y-13840428D01*
X19409881Y-13840428D02*
X19419405Y-13830905D01*
X19495595Y-13926143D02*
X19495595Y-14059476D01*
X19495595Y-13945190D02*
X19505119Y-13935667D01*
X19505119Y-13935667D02*
X19524167Y-13926143D01*
X19524167Y-13926143D02*
X19552738Y-13926143D01*
X19552738Y-13926143D02*
X19571786Y-13935667D01*
X19571786Y-13935667D02*
X19581310Y-13954714D01*
X19581310Y-13954714D02*
X19581310Y-14059476D01*
X19705119Y-14059476D02*
X19686072Y-14049952D01*
X19686072Y-14049952D02*
X19676548Y-14040428D01*
X19676548Y-14040428D02*
X19667024Y-14021381D01*
X19667024Y-14021381D02*
X19667024Y-13964238D01*
X19667024Y-13964238D02*
X19676548Y-13945190D01*
X19676548Y-13945190D02*
X19686072Y-13935667D01*
X19686072Y-13935667D02*
X19705119Y-13926143D01*
X19705119Y-13926143D02*
X19733691Y-13926143D01*
X19733691Y-13926143D02*
X19752738Y-13935667D01*
X19752738Y-13935667D02*
X19762262Y-13945190D01*
X19762262Y-13945190D02*
X19771786Y-13964238D01*
X19771786Y-13964238D02*
X19771786Y-14021381D01*
X19771786Y-14021381D02*
X19762262Y-14040428D01*
X19762262Y-14040428D02*
X19752738Y-14049952D01*
X19752738Y-14049952D02*
X19733691Y-14059476D01*
X19733691Y-14059476D02*
X19705119Y-14059476D01*
X19828929Y-13926143D02*
X19905119Y-13926143D01*
X19857500Y-13859476D02*
X19857500Y-14030905D01*
X19857500Y-14030905D02*
X19867024Y-14049952D01*
X19867024Y-14049952D02*
X19886072Y-14059476D01*
X19886072Y-14059476D02*
X19905119Y-14059476D01*
X20091786Y-13926143D02*
X20091786Y-14126143D01*
X20091786Y-13935667D02*
X20110834Y-13926143D01*
X20110834Y-13926143D02*
X20148929Y-13926143D01*
X20148929Y-13926143D02*
X20167976Y-13935667D01*
X20167976Y-13935667D02*
X20177500Y-13945190D01*
X20177500Y-13945190D02*
X20187024Y-13964238D01*
X20187024Y-13964238D02*
X20187024Y-14021381D01*
X20187024Y-14021381D02*
X20177500Y-14040428D01*
X20177500Y-14040428D02*
X20167976Y-14049952D01*
X20167976Y-14049952D02*
X20148929Y-14059476D01*
X20148929Y-14059476D02*
X20110834Y-14059476D01*
X20110834Y-14059476D02*
X20091786Y-14049952D01*
X20301310Y-14059476D02*
X20282262Y-14049952D01*
X20282262Y-14049952D02*
X20272738Y-14030905D01*
X20272738Y-14030905D02*
X20272738Y-13859476D01*
X20463215Y-14059476D02*
X20463215Y-13954714D01*
X20463215Y-13954714D02*
X20453691Y-13935667D01*
X20453691Y-13935667D02*
X20434643Y-13926143D01*
X20434643Y-13926143D02*
X20396548Y-13926143D01*
X20396548Y-13926143D02*
X20377500Y-13935667D01*
X20463215Y-14049952D02*
X20444167Y-14059476D01*
X20444167Y-14059476D02*
X20396548Y-14059476D01*
X20396548Y-14059476D02*
X20377500Y-14049952D01*
X20377500Y-14049952D02*
X20367976Y-14030905D01*
X20367976Y-14030905D02*
X20367976Y-14011857D01*
X20367976Y-14011857D02*
X20377500Y-13992809D01*
X20377500Y-13992809D02*
X20396548Y-13983286D01*
X20396548Y-13983286D02*
X20444167Y-13983286D01*
X20444167Y-13983286D02*
X20463215Y-13973762D01*
X20529881Y-13926143D02*
X20606072Y-13926143D01*
X20558453Y-13859476D02*
X20558453Y-14030905D01*
X20558453Y-14030905D02*
X20567976Y-14049952D01*
X20567976Y-14049952D02*
X20587024Y-14059476D01*
X20587024Y-14059476D02*
X20606072Y-14059476D01*
X20748929Y-14049952D02*
X20729881Y-14059476D01*
X20729881Y-14059476D02*
X20691786Y-14059476D01*
X20691786Y-14059476D02*
X20672738Y-14049952D01*
X20672738Y-14049952D02*
X20663215Y-14030905D01*
X20663215Y-14030905D02*
X20663215Y-13954714D01*
X20663215Y-13954714D02*
X20672738Y-13935667D01*
X20672738Y-13935667D02*
X20691786Y-13926143D01*
X20691786Y-13926143D02*
X20729881Y-13926143D01*
X20729881Y-13926143D02*
X20748929Y-13935667D01*
X20748929Y-13935667D02*
X20758453Y-13954714D01*
X20758453Y-13954714D02*
X20758453Y-13973762D01*
X20758453Y-13973762D02*
X20663215Y-13992809D01*
X20929881Y-14059476D02*
X20929881Y-13859476D01*
X20929881Y-14049952D02*
X20910834Y-14059476D01*
X20910834Y-14059476D02*
X20872738Y-14059476D01*
X20872738Y-14059476D02*
X20853691Y-14049952D01*
X20853691Y-14049952D02*
X20844167Y-14040428D01*
X20844167Y-14040428D02*
X20834643Y-14021381D01*
X20834643Y-14021381D02*
X20834643Y-13964238D01*
X20834643Y-13964238D02*
X20844167Y-13945190D01*
X20844167Y-13945190D02*
X20853691Y-13935667D01*
X20853691Y-13935667D02*
X20872738Y-13926143D01*
X20872738Y-13926143D02*
X20910834Y-13926143D01*
X20910834Y-13926143D02*
X20929881Y-13935667D01*
X21006072Y-14135667D02*
X21015596Y-14126143D01*
X21015596Y-14126143D02*
X21034643Y-14097571D01*
X21034643Y-14097571D02*
X21044167Y-14078524D01*
X21044167Y-14078524D02*
X21053691Y-14049952D01*
X21053691Y-14049952D02*
X21063215Y-14002333D01*
X21063215Y-14002333D02*
X21063215Y-13964238D01*
X21063215Y-13964238D02*
X21053691Y-13916619D01*
X21053691Y-13916619D02*
X21044167Y-13888048D01*
X21044167Y-13888048D02*
X21034643Y-13869000D01*
X21034643Y-13869000D02*
X21015596Y-13840428D01*
X21015596Y-13840428D02*
X21006072Y-13830905D01*
M02*
